M48
; DRILL file KiCad 10.0.3 date 2026-06-22T16:20:37
; FORMAT={-:-/ absolute / metric / decimal}
; #@! TF.CreationDate,2026-06-22T16:20:37+09:00
; #@! TF.GenerationSoftware,Kicad,Pcbnew,10.0.3
; #@! TF.FileFunction,Plated,1,4,PTH
FMAT,2
METRIC
; #@! TA.AperFunction,Plated,PTH,ViaDrill
T1C0.300
; #@! TA.AperFunction,Plated,PTH,ComponentDrill
T2C0.812
; #@! TA.AperFunction,Plated,PTH,ComponentDrill
T3C0.889
; #@! TA.AperFunction,Plated,PTH,ComponentDrill
T4C0.890
; #@! TA.AperFunction,Plated,PTH,ComponentDrill
T5C0.950
; #@! TA.AperFunction,Plated,PTH,ComponentDrill
T6C1.092
; #@! TA.AperFunction,Plated,PTH,ComponentDrill
T7C1.200
; #@! TA.AperFunction,Plated,PTH,ComponentDrill
T8C1.500
; #@! TA.AperFunction,Plated,PTH,ComponentDrill
T9C2.000
; #@! TA.AperFunction,Plated,PTH,ComponentDrill
T10C2.902
; #@! TA.AperFunction,Plated,PTH,ComponentDrill
T11C3.200
%
G90
G05
T1
X94.2Y-58.8
X94.2Y-62.3
X94.2Y-79.8
X94.2Y-87.3
X94.2Y-95.8
X94.2Y-104.8
X94.2Y-114.8
X94.2Y-122.8
X97.7Y-75.8
X99.2Y-95.8
X99.2Y-100.3
X99.2Y-104.8
X99.2Y-110.8
X100.7Y-58.8
X100.7Y-62.3
X104.2Y-114.8
X104.2Y-122.8
X105.7Y-59.3
X105.7Y-62.3
X113.2Y-109.8
X115.7Y-54.3
X117.7Y-56.3
X121.7Y-115.8
X124.2Y-110.8
X128.7Y-60.3
X129.2Y-95.8
X129.7Y-111.8
X130.175Y-68.225
X130.2Y-120.8
X131.7Y-104.3
X135.7Y-101.8
X135.7Y-106.3
X136.2Y-60.3
X136.2Y-68.3
X136.2Y-78.3
X139.2Y-116.8
X139.2Y-123.3
X144.7Y-88.525
X144.7Y-99.8
X144.7Y-108.3
X145.7Y-62.3
X146.2Y-60.8
X147.2Y-56.3
X150.2Y-84.3
X150.7Y-44.3
X150.7Y-56.3
X150.7Y-60.8
X150.7Y-68.3
X150.7Y-80.3
X150.7Y-92.3
X150.7Y-104.3
X150.7Y-108.3
X150.7Y-116.3
X150.7Y-120.3
X151.7Y-53.8
X151.7Y-77.8
X151.7Y-101.8
X152.7Y-48.3
X152.7Y-60.3
X152.7Y-72.3
X152.7Y-84.3
X152.7Y-96.3
X152.7Y-108.3
X152.7Y-120.3
X155.2Y-52.3
X155.2Y-64.3
X155.2Y-76.3
X155.2Y-80.3
X155.2Y-88.3
X155.2Y-100.3
X155.2Y-112.3
X155.2Y-124.3
X157.2Y-48.3
X157.2Y-60.3
X157.2Y-72.3
X157.2Y-84.3
X157.2Y-96.3
X157.2Y-108.3
X157.2Y-120.3
X159.2Y-44.3
X159.2Y-56.3
X159.2Y-68.3
X159.2Y-80.3
X159.2Y-92.3
X159.2Y-104.3
X159.2Y-116.3
X162.7Y-54.3
X162.7Y-66.3
X162.7Y-78.3
X162.7Y-90.3
X162.7Y-102.3
X162.7Y-114.3
X162.7Y-126.3
X164.7Y-81.3
X167.7Y-78.8
X168.2Y-53.3
X168.2Y-88.3
X169.2Y-112.8
X169.2Y-121.3
X169.7Y-47.8
X169.7Y-55.3
X171.2Y-58.3
X174.7Y-62.3
X175.7Y-66.3
X175.7Y-114.8
X175.7Y-119.3
X179.7Y-116.8
X181.2Y-120.3
X182.2Y-109.3
X188.925Y-97.375
X194.2Y-100.8
X194.2Y-110.8
X194.2Y-121.3
X203.2Y-51.3
X204.2Y-82.8
X204.7Y-55.8
X206.2Y-77.3
X206.7Y-62.8
X206.7Y-67.8
X207.2Y-51.3
X207.4Y-122.8
X208.2Y-57.3
X209.2Y-100.8
X209.2Y-105.8
X209.2Y-110.8
X209.2Y-115.8
X210.975Y-62.325
X214.2Y-75.8
X214.2Y-80.8
X214.2Y-85.8
X214.2Y-90.8
X214.2Y-95.8
X214.2Y-100.8
X214.2Y-105.8
X214.2Y-110.8
X214.2Y-115.8
X219.2Y-75.8
X219.2Y-80.8
X219.2Y-85.8
X219.2Y-90.8
X219.2Y-95.8
X219.2Y-100.8
X219.2Y-105.8
X219.2Y-110.8
X219.2Y-115.8
T2
X114.43Y-47.71
X114.43Y-51.53
X115.7Y-45.8
X115.7Y-49.62
X116.97Y-47.71
X116.97Y-51.53
X118.24Y-45.8
X118.24Y-49.62
X119.51Y-47.71
X119.51Y-51.53
X120.78Y-45.8
X120.78Y-49.62
X122.05Y-47.71
X122.05Y-51.53
X123.32Y-45.8
X123.32Y-49.62
X124.59Y-47.71
X124.59Y-51.53
X125.86Y-45.8
X125.86Y-49.62
T3
X202.7Y-122.8
X202.7Y-125.3
X202.7Y-127.8
T4
X119.2Y-119.222
X121.74Y-119.222
T5
X215.625Y-62.575
X215.625Y-65.075
X215.625Y-67.575
X215.625Y-70.075
T6
X201.5Y-119.6
X204.9Y-130.9
T7
X180.187Y-43.42
X180.187Y-45.96
X180.187Y-48.5
X180.187Y-51.04
X180.187Y-53.58
X180.187Y-56.12
X180.187Y-58.66
X180.187Y-61.2
X180.187Y-63.74
X180.187Y-66.28
X180.187Y-68.82
X180.187Y-71.36
X180.187Y-73.9
X180.187Y-76.44
X180.187Y-78.98
X180.187Y-81.52
X180.187Y-84.06
X180.187Y-86.6
X180.187Y-89.14
X180.187Y-91.68
X197.713Y-43.42
X197.713Y-45.96
X197.713Y-48.5
X197.713Y-51.04
X197.713Y-53.58
X197.713Y-56.12
X197.713Y-58.66
X197.713Y-61.2
X197.713Y-63.74
X197.713Y-66.28
X197.713Y-68.82
X197.713Y-71.36
X197.713Y-73.9
X197.713Y-76.44
X197.713Y-78.98
X197.713Y-81.52
X197.713Y-84.06
X197.713Y-86.6
X197.713Y-89.14
X197.713Y-91.68
T8
X104.29Y-68.14
X104.29Y-75.76
X104.29Y-80.84
X124.61Y-68.14
X124.61Y-78.3
X124.61Y-88.46
T9
X114.12Y-124.302
X124.28Y-124.302
T10
X106.42Y-49.62
X133.87Y-49.62
T11
X93.7Y-45.3
X93.7Y-129.3
X219.7Y-45.3
X219.7Y-129.3
M30
