%TF.GenerationSoftware,KiCad,Pcbnew,10.0.3*%
%TF.CreationDate,2026-06-22T20:20:04+09:00*%
%TF.ProjectId,8bit converter,38626974-2063-46f6-9e76-65727465722e,rev?*%
%TF.SameCoordinates,Original*%
%TF.FileFunction,Soldermask,Top*%
%TF.FilePolarity,Negative*%
%FSLAX46Y46*%
G04 Gerber Fmt 4.6, Leading zero omitted, Abs format (unit mm)*
G04 Created by KiCad (PCBNEW 10.0.3) date 2026-06-22 20:20:04*
%MOMM*%
%LPD*%
G01*
G04 APERTURE LIST*
G04 Aperture macros list*
%AMRoundRect*
0 Rectangle with rounded corners*
0 $1 Rounding radius*
0 $2 $3 $4 $5 $6 $7 $8 $9 X,Y pos of 4 corners*
0 Add a 4 corners polygon primitive as box body*
4,1,4,$2,$3,$4,$5,$6,$7,$8,$9,$2,$3,0*
0 Add four circle primitives for the rounded corners*
1,1,$1+$1,$2,$3*
1,1,$1+$1,$4,$5*
1,1,$1+$1,$6,$7*
1,1,$1+$1,$8,$9*
0 Add four rect primitives between the rounded corners*
20,1,$1+$1,$2,$3,$4,$5,0*
20,1,$1+$1,$4,$5,$6,$7,0*
20,1,$1+$1,$6,$7,$8,$9,0*
20,1,$1+$1,$8,$9,$2,$3,0*%
%AMFreePoly0*
4,1,13,-0.500000,0.250000,0.500000,0.250000,0.500000,0.000000,0.480970,-0.095671,0.426777,-0.176777,0.345671,-0.230970,0.250000,-0.250000,-0.250000,-0.250000,-0.345671,-0.230970,-0.426777,-0.176777,-0.480970,-0.095671,-0.500000,0.000000,-0.500000,0.250000,-0.500000,0.250000,$1*%
G04 Aperture macros list end*
%ADD10C,0.000000*%
%ADD11R,1.200000X1.000000*%
%ADD12O,4.000000X1.800000*%
%ADD13C,1.800000*%
%ADD14RoundRect,0.270000X-1.730000X-0.630000X1.730000X-0.630000X1.730000X0.630000X-1.730000X0.630000X0*%
%ADD15RoundRect,0.250000X-0.650000X-0.650000X0.650000X-0.650000X0.650000X0.650000X-0.650000X0.650000X0*%
%ADD16RoundRect,0.270000X1.730000X0.630000X-1.730000X0.630000X-1.730000X-0.630000X1.730000X-0.630000X0*%
%ADD17O,1.800000X4.000000*%
%ADD18RoundRect,0.270000X0.630000X-1.730000X0.630000X1.730000X-0.630000X1.730000X-0.630000X-1.730000X0*%
%ADD19RoundRect,0.102000X-0.699000X-0.699000X0.699000X-0.699000X0.699000X0.699000X-0.699000X0.699000X0*%
%ADD20C,1.602000*%
%ADD21C,3.704000*%
%ADD22RoundRect,0.088500X-0.516500X-0.206500X0.516500X-0.206500X0.516500X0.206500X-0.516500X0.206500X0*%
%ADD23R,1.000000X1.200000*%
%ADD24RoundRect,0.250000X0.725000X-0.600000X0.725000X0.600000X-0.725000X0.600000X-0.725000X-0.600000X0*%
%ADD25O,1.950000X1.700000*%
%ADD26R,0.550800X1.336200*%
%ADD27C,5.000000*%
%ADD28O,1.200000X0.600000*%
%ADD29FreePoly0,270.000000*%
%ADD30FreePoly0,90.000000*%
%ADD31C,1.397000*%
%ADD32C,1.600200*%
%ADD33R,1.336200X0.550800*%
%ADD34RoundRect,0.088500X0.206500X-0.516500X0.206500X0.516500X-0.206500X0.516500X-0.206500X-0.516500X0*%
%ADD35RoundRect,0.088500X-0.206500X0.516500X-0.206500X-0.516500X0.206500X-0.516500X0.206500X0.516500X0*%
%ADD36R,2.250000X2.250000*%
%ADD37C,2.250000*%
%ADD38RoundRect,0.102000X0.659800X0.659800X-0.659800X0.659800X-0.659800X-0.659800X0.659800X-0.659800X0*%
%ADD39C,1.523600*%
%ADD40C,4.121600*%
G04 APERTURE END LIST*
D10*
%TO.C,JP1*%
G36*
X98400000Y-68800000D02*
G01*
X98000000Y-68800000D01*
X98000000Y-67800000D01*
X98400000Y-67800000D01*
X98400000Y-68800000D01*
G37*
%TD*%
D11*
%TO.C,R8*%
X162700000Y-50400000D03*
X162700000Y-52200000D03*
%TD*%
%TO.C,R10*%
X162700000Y-110400000D03*
X162700000Y-112200000D03*
%TD*%
%TO.C,C38*%
X131900000Y-88400000D03*
X131900000Y-86600000D03*
%TD*%
D12*
%TO.C,U10*%
X179060000Y-43420000D03*
D13*
X180187000Y-43420000D03*
D12*
X179060000Y-45960000D03*
D13*
X180187000Y-45960000D03*
D14*
X179060000Y-48500000D03*
D15*
X180187000Y-48500000D03*
D12*
X179060000Y-51040000D03*
D13*
X180187000Y-51040000D03*
D12*
X179060000Y-53580000D03*
D13*
X180187000Y-53580000D03*
D12*
X179060000Y-56120000D03*
D13*
X180187000Y-56120000D03*
D12*
X179060000Y-58660000D03*
D13*
X180187000Y-58660000D03*
D14*
X179060000Y-61200000D03*
D15*
X180187000Y-61200000D03*
D12*
X179060000Y-63740000D03*
D13*
X180187000Y-63740000D03*
D12*
X179060000Y-66280000D03*
D13*
X180187000Y-66280000D03*
D12*
X179060000Y-68820000D03*
D13*
X180187000Y-68820000D03*
D12*
X179060000Y-71360000D03*
D13*
X180187000Y-71360000D03*
D14*
X179060000Y-73900000D03*
D15*
X180187000Y-73900000D03*
D12*
X179060000Y-76440000D03*
D13*
X180187000Y-76440000D03*
D12*
X179060000Y-78980000D03*
D13*
X180187000Y-78980000D03*
D12*
X179060000Y-81520000D03*
D13*
X180187000Y-81520000D03*
D12*
X179060000Y-84060000D03*
D13*
X180187000Y-84060000D03*
D14*
X179060000Y-86600000D03*
D15*
X180187000Y-86600000D03*
D12*
X179060000Y-89140000D03*
D13*
X180187000Y-89140000D03*
D12*
X179060000Y-91680000D03*
D13*
X180187000Y-91680000D03*
X197713000Y-91680000D03*
D12*
X198840000Y-91680000D03*
D13*
X197713000Y-89140000D03*
D12*
X198840000Y-89140000D03*
D15*
X197713000Y-86600000D03*
D16*
X198840000Y-86600000D03*
D13*
X197713000Y-84060000D03*
D12*
X198840000Y-84060000D03*
D13*
X197713000Y-81520000D03*
D12*
X198840000Y-81520000D03*
D13*
X197713000Y-78980000D03*
D12*
X198840000Y-78980000D03*
D13*
X197713000Y-76440000D03*
D12*
X198840000Y-76440000D03*
D15*
X197713000Y-73900000D03*
D16*
X198840000Y-73900000D03*
D13*
X197713000Y-71360000D03*
D12*
X198840000Y-71360000D03*
D13*
X197713000Y-68820000D03*
D12*
X198840000Y-68820000D03*
D13*
X197713000Y-66280000D03*
D12*
X198840000Y-66280000D03*
D13*
X197713000Y-63740000D03*
D12*
X198840000Y-63740000D03*
D15*
X197713000Y-61200000D03*
D16*
X198840000Y-61200000D03*
D13*
X197713000Y-58660000D03*
D12*
X198840000Y-58660000D03*
D13*
X197713000Y-56120000D03*
D12*
X198840000Y-56120000D03*
D13*
X197713000Y-53580000D03*
D12*
X198840000Y-53580000D03*
D13*
X197713000Y-51040000D03*
D12*
X198840000Y-51040000D03*
D15*
X197713000Y-48500000D03*
D16*
X198840000Y-48500000D03*
D13*
X197713000Y-45960000D03*
D12*
X198840000Y-45960000D03*
D13*
X197713000Y-43420000D03*
D12*
X198840000Y-43420000D03*
D17*
X186410000Y-92680000D03*
D18*
X188950000Y-92680000D03*
D17*
X191490000Y-92680000D03*
%TD*%
D19*
%TO.C,J1*%
X119200000Y-119222500D03*
D20*
X121740000Y-119222500D03*
D21*
X114120000Y-124302500D03*
X124280000Y-124302500D03*
%TD*%
D22*
%TO.C,U4*%
X156945000Y-86350000D03*
X156945000Y-87300000D03*
X156945000Y-88250000D03*
X159455000Y-88250000D03*
X159455000Y-86350000D03*
%TD*%
D23*
%TO.C,R12*%
X177800000Y-109300000D03*
X179600000Y-109300000D03*
%TD*%
%TO.C,C32*%
X150800000Y-118300000D03*
X152600000Y-118300000D03*
%TD*%
D24*
%TO.C,CN2*%
X215625000Y-70075000D03*
D25*
X215625000Y-67575000D03*
X215625000Y-65075000D03*
X215625000Y-62575000D03*
%TD*%
D23*
%TO.C,R13*%
X133600000Y-111800000D03*
X131800000Y-111800000D03*
%TD*%
%TO.C,C30*%
X150800000Y-106300000D03*
X152600000Y-106300000D03*
%TD*%
D26*
%TO.C,D3*%
X152650001Y-62112502D03*
X150749999Y-62112502D03*
X151700000Y-64487500D03*
%TD*%
D11*
%TO.C,C35*%
X173700000Y-114700000D03*
X173700000Y-112900000D03*
%TD*%
D27*
%TO.C,MH1*%
X219700000Y-45300000D03*
%TD*%
D22*
%TO.C,U7*%
X156945000Y-122350000D03*
X156945000Y-123300000D03*
X156945000Y-124250000D03*
X159455000Y-124250000D03*
X159455000Y-122350000D03*
%TD*%
D28*
%TO.C,D1*%
X206250000Y-44000000D03*
X206250000Y-44950000D03*
X206250000Y-45900000D03*
X208750000Y-45900000D03*
X208750000Y-44000000D03*
%TD*%
D23*
%TO.C,C29*%
X157300000Y-94300000D03*
X159100000Y-94300000D03*
%TD*%
D11*
%TO.C,R7*%
X162700000Y-86400000D03*
X162700000Y-88200000D03*
%TD*%
D23*
%TO.C,C2*%
X107800000Y-62315000D03*
X109600000Y-62315000D03*
%TD*%
%TO.C,C19*%
X152600000Y-46300000D03*
X150800000Y-46300000D03*
%TD*%
D29*
%TO.C,JP1*%
X97850000Y-68300000D03*
D30*
X98550000Y-68300000D03*
%TD*%
D11*
%TO.C,R5*%
X205200000Y-64700000D03*
X205200000Y-62900000D03*
%TD*%
D23*
%TO.C,C22*%
X150800000Y-58300000D03*
X152600000Y-58300000D03*
%TD*%
D31*
%TO.C,SW1*%
X202700000Y-122800000D03*
X202700000Y-125300000D03*
X202700000Y-127800000D03*
D32*
X204900001Y-130899999D03*
X201500000Y-119599999D03*
%TD*%
D23*
%TO.C,C27*%
X157300000Y-82300000D03*
X159100000Y-82300000D03*
%TD*%
D11*
%TO.C,R2*%
X204200000Y-91700000D03*
X204200000Y-89900000D03*
%TD*%
D33*
%TO.C,D9*%
X177512502Y-119349999D03*
X177512502Y-121250001D03*
X179887500Y-120300000D03*
%TD*%
D23*
%TO.C,C24*%
X152600000Y-70300000D03*
X150800000Y-70300000D03*
%TD*%
%TO.C,C1*%
X107800000Y-59300000D03*
X109600000Y-59300000D03*
%TD*%
D22*
%TO.C,U5*%
X156945000Y-98350000D03*
X156945000Y-99300000D03*
X156945000Y-100250000D03*
X159455000Y-100250000D03*
X159455000Y-98350000D03*
%TD*%
D27*
%TO.C,MH3*%
X93700000Y-45300000D03*
%TD*%
D22*
%TO.C,U2*%
X156945000Y-62350000D03*
X156945000Y-63300000D03*
X156945000Y-64250000D03*
X159455000Y-64250000D03*
X159455000Y-62350000D03*
%TD*%
D23*
%TO.C,C23*%
X157300000Y-58300000D03*
X159100000Y-58300000D03*
%TD*%
D22*
%TO.C,U6*%
X156945000Y-110350000D03*
X156945000Y-111300000D03*
X156945000Y-112250000D03*
X159455000Y-112250000D03*
X159455000Y-110350000D03*
%TD*%
%TO.C,U1*%
X156945000Y-50350000D03*
X156945000Y-51300000D03*
X156945000Y-52250000D03*
X159455000Y-52250000D03*
X159455000Y-50350000D03*
%TD*%
D23*
%TO.C,C28*%
X150800000Y-94300000D03*
X152600000Y-94300000D03*
%TD*%
D11*
%TO.C,C34*%
X173700000Y-121200000D03*
X173700000Y-119400000D03*
%TD*%
%TO.C,R11*%
X162700000Y-122400000D03*
X162700000Y-124200000D03*
%TD*%
D26*
%TO.C,D8*%
X152650001Y-122112502D03*
X150749999Y-122112502D03*
X151700000Y-124487500D03*
%TD*%
D11*
%TO.C,C36*%
X137700000Y-108200000D03*
X137700000Y-106400000D03*
%TD*%
%TO.C,R9*%
X162700000Y-98400000D03*
X162700000Y-100200000D03*
%TD*%
%TO.C,R4*%
X162700000Y-74400000D03*
X162700000Y-76200000D03*
%TD*%
%TO.C,C37*%
X135750000Y-88425000D03*
X135750000Y-86625000D03*
%TD*%
D23*
%TO.C,C33*%
X157300000Y-118300000D03*
X159100000Y-118300000D03*
%TD*%
D26*
%TO.C,D5*%
X152650001Y-86112502D03*
X150749999Y-86112502D03*
X151700000Y-88487500D03*
%TD*%
%TO.C,D7*%
X152650001Y-110112502D03*
X150749999Y-110112502D03*
X151700000Y-112487500D03*
%TD*%
D11*
%TO.C,R3*%
X205200000Y-69700000D03*
X205200000Y-67900000D03*
%TD*%
D34*
%TO.C,U8*%
X177750000Y-115055000D03*
X178700000Y-115055000D03*
X179650000Y-115055000D03*
X179650000Y-112545000D03*
X177750000Y-112545000D03*
%TD*%
D35*
%TO.C,U9*%
X133650000Y-106045000D03*
X132700000Y-106045000D03*
X131750000Y-106045000D03*
X131750000Y-108555000D03*
X133650000Y-108555000D03*
%TD*%
D11*
%TO.C,R6*%
X162700000Y-62400000D03*
X162700000Y-64200000D03*
%TD*%
D26*
%TO.C,D2*%
X152650001Y-50112502D03*
X150749999Y-50112502D03*
X151700000Y-52487500D03*
%TD*%
D36*
%TO.C,PS1*%
X104290000Y-68140000D03*
D37*
X104290000Y-75760000D03*
X104290000Y-80840000D03*
X124610000Y-88460000D03*
X124610000Y-78300000D03*
X124610000Y-68140000D03*
%TD*%
D33*
%TO.C,D10*%
X133887498Y-101750001D03*
X133887498Y-99849999D03*
X131512500Y-100800000D03*
%TD*%
D23*
%TO.C,C21*%
X157300000Y-46300000D03*
X159100000Y-46300000D03*
%TD*%
D38*
%TO.C,CN1*%
X114430000Y-51530000D03*
D39*
X115700000Y-49620000D03*
X116970000Y-51530000D03*
X118240000Y-49620000D03*
X119510000Y-51530000D03*
X120780000Y-49620000D03*
X122050000Y-51530000D03*
X123320000Y-49620000D03*
X124590000Y-51530000D03*
X125860000Y-49620000D03*
X114430000Y-47710000D03*
X115700000Y-45800000D03*
X116970000Y-47710000D03*
X118240000Y-45800000D03*
X119510000Y-47710000D03*
X120780000Y-45800000D03*
X122050000Y-47710000D03*
X123320000Y-45800000D03*
X124590000Y-47710000D03*
X125860000Y-45800000D03*
D40*
X133870000Y-49620000D03*
X106420000Y-49620000D03*
%TD*%
D23*
%TO.C,C25*%
X159100000Y-70300000D03*
X157300000Y-70300000D03*
%TD*%
D27*
%TO.C,MH2*%
X219700000Y-129300000D03*
%TD*%
D26*
%TO.C,D4*%
X152650001Y-74112502D03*
X150749999Y-74112502D03*
X151700000Y-76487500D03*
%TD*%
D11*
%TO.C,C20*%
X137700000Y-101700000D03*
X137700000Y-99900000D03*
%TD*%
D26*
%TO.C,D6*%
X152650001Y-98112502D03*
X150749999Y-98112502D03*
X151700000Y-100487500D03*
%TD*%
D23*
%TO.C,C26*%
X150800000Y-82300000D03*
X152600000Y-82300000D03*
%TD*%
D27*
%TO.C,MH4*%
X93700000Y-129300000D03*
%TD*%
D23*
%TO.C,C31*%
X157300000Y-106300000D03*
X159100000Y-106300000D03*
%TD*%
D22*
%TO.C,U3*%
X156945000Y-74350000D03*
X156945000Y-75300000D03*
X156945000Y-76250000D03*
X159455000Y-76250000D03*
X159455000Y-74350000D03*
%TD*%
M02*
