%TF.GenerationSoftware,KiCad,Pcbnew,10.0.3*%
%TF.CreationDate,2026-06-22T16:19:41+09:00*%
%TF.ProjectId,8bit converter,38626974-2063-46f6-9e76-65727465722e,rev?*%
%TF.SameCoordinates,Original*%
%TF.FileFunction,Copper,L3,Inr*%
%TF.FilePolarity,Positive*%
%FSLAX46Y46*%
G04 Gerber Fmt 4.6, Leading zero omitted, Abs format (unit mm)*
G04 Created by KiCad (PCBNEW 10.0.3) date 2026-06-22 16:19:41*
%MOMM*%
%LPD*%
G01*
G04 APERTURE LIST*
G04 Aperture macros list*
%AMRoundRect*
0 Rectangle with rounded corners*
0 $1 Rounding radius*
0 $2 $3 $4 $5 $6 $7 $8 $9 X,Y pos of 4 corners*
0 Add a 4 corners polygon primitive as box body*
4,1,4,$2,$3,$4,$5,$6,$7,$8,$9,$2,$3,0*
0 Add four circle primitives for the rounded corners*
1,1,$1+$1,$2,$3*
1,1,$1+$1,$4,$5*
1,1,$1+$1,$6,$7*
1,1,$1+$1,$8,$9*
0 Add four rect primitives between the rounded corners*
20,1,$1+$1,$2,$3,$4,$5,0*
20,1,$1+$1,$4,$5,$6,$7,0*
20,1,$1+$1,$6,$7,$8,$9,0*
20,1,$1+$1,$8,$9,$2,$3,0*%
G04 Aperture macros list end*
%TA.AperFunction,ComponentPad*%
%ADD10C,1.800000*%
%TD*%
%TA.AperFunction,ComponentPad*%
%ADD11RoundRect,0.250000X-0.650000X-0.650000X0.650000X-0.650000X0.650000X0.650000X-0.650000X0.650000X0*%
%TD*%
%TA.AperFunction,ComponentPad*%
%ADD12R,1.398000X1.398000*%
%TD*%
%TA.AperFunction,ComponentPad*%
%ADD13C,1.398000*%
%TD*%
%TA.AperFunction,ComponentPad*%
%ADD14C,3.500000*%
%TD*%
%TA.AperFunction,ComponentPad*%
%ADD15RoundRect,0.250000X0.725000X-0.600000X0.725000X0.600000X-0.725000X0.600000X-0.725000X-0.600000X0*%
%TD*%
%TA.AperFunction,ComponentPad*%
%ADD16O,1.950000X1.700000*%
%TD*%
%TA.AperFunction,ComponentPad*%
%ADD17C,5.000000*%
%TD*%
%TA.AperFunction,ComponentPad*%
%ADD18C,1.397000*%
%TD*%
%TA.AperFunction,ComponentPad*%
%ADD19C,1.600200*%
%TD*%
%TA.AperFunction,ComponentPad*%
%ADD20R,2.250000X2.250000*%
%TD*%
%TA.AperFunction,ComponentPad*%
%ADD21C,2.250000*%
%TD*%
%TA.AperFunction,ComponentPad*%
%ADD22R,1.319600X1.319600*%
%TD*%
%TA.AperFunction,ComponentPad*%
%ADD23C,1.319600*%
%TD*%
%TA.AperFunction,ComponentPad*%
%ADD24C,3.917600*%
%TD*%
%TA.AperFunction,ViaPad*%
%ADD25C,0.600000*%
%TD*%
G04 APERTURE END LIST*
D10*
%TO.N,/o_MUX0*%
%TO.C,U10*%
X180187000Y-43420000D03*
%TO.N,/o_MUX1*%
X180187000Y-45960000D03*
D11*
%TO.N,GND*%
X180187000Y-48500000D03*
D10*
%TO.N,/o_MUX2*%
X180187000Y-51040000D03*
%TO.N,/o_MUX3*%
X180187000Y-53580000D03*
%TO.N,/o_MUX4*%
X180187000Y-56120000D03*
%TO.N,/o_MUX5*%
X180187000Y-58660000D03*
D11*
%TO.N,GND*%
X180187000Y-61200000D03*
D10*
%TO.N,/o_MUX6*%
X180187000Y-63740000D03*
%TO.N,/o_MUX7*%
X180187000Y-66280000D03*
%TO.N,/o_TRIG*%
X180187000Y-68820000D03*
%TO.N,unconnected-(U10-GP9(I2C1SCL)-Pad12)*%
X180187000Y-71360000D03*
D11*
%TO.N,GND*%
X180187000Y-73900000D03*
D10*
%TO.N,unconnected-(U10-GP10(SPI1_SCK)-Pad14)*%
X180187000Y-76440000D03*
%TO.N,unconnected-(U10-GP11(SPI1_TX)-Pad15)*%
X180187000Y-78980000D03*
%TO.N,unconnected-(U10-GP12(SPI1_RX)(UART0TX)-Pad16)*%
X180187000Y-81520000D03*
%TO.N,unconnected-(U10-GP13(SPI1_CSn)(UART0RX)-Pad17)*%
X180187000Y-84060000D03*
D11*
%TO.N,GND*%
X180187000Y-86600000D03*
D10*
%TO.N,unconnected-(U10-GP14-Pad19)*%
X180187000Y-89140000D03*
%TO.N,unconnected-(U10-GP15-Pad20)*%
X180187000Y-91680000D03*
%TO.N,Net-(SW1-COM)*%
X197713000Y-91680000D03*
%TO.N,unconnected-(U10-GP17-Pad22)*%
X197713000Y-89140000D03*
D11*
%TO.N,GND*%
X197713000Y-86600000D03*
D10*
%TO.N,unconnected-(U10-GP18-Pad24)*%
X197713000Y-84060000D03*
%TO.N,unconnected-(U10-GP19-Pad25)*%
X197713000Y-81520000D03*
%TO.N,unconnected-(U10-GP20-Pad26)*%
X197713000Y-78980000D03*
%TO.N,unconnected-(U10-GP21-Pad27)*%
X197713000Y-76440000D03*
D11*
%TO.N,GND*%
X197713000Y-73900000D03*
D10*
%TO.N,unconnected-(U10-GP22-Pad29)*%
X197713000Y-71360000D03*
%TO.N,unconnected-(U10-~{RUN}-Pad30)*%
X197713000Y-68820000D03*
%TO.N,/SDA*%
X197713000Y-66280000D03*
%TO.N,/SCL*%
X197713000Y-63740000D03*
D11*
%TO.N,GND*%
X197713000Y-61200000D03*
D10*
%TO.N,unconnected-(U10-GP28-Pad34)*%
X197713000Y-58660000D03*
%TO.N,unconnected-(U10-ADC_VREF-Pad35)*%
X197713000Y-56120000D03*
%TO.N,+3.3V*%
X197713000Y-53580000D03*
%TO.N,unconnected-(U10-3V3_EN-Pad37)*%
X197713000Y-51040000D03*
D11*
%TO.N,GND*%
X197713000Y-48500000D03*
D10*
%TO.N,+5V*%
X197713000Y-45960000D03*
%TO.N,Net-(D1-A_2)*%
X197713000Y-43420000D03*
%TD*%
D12*
%TO.N,/o_TRIG_BNC*%
%TO.C,J1*%
X119200000Y-119222500D03*
D13*
%TO.N,GND*%
X121740000Y-119222500D03*
D14*
X114120000Y-124302500D03*
X124280000Y-124302500D03*
%TD*%
D15*
%TO.N,/SDA*%
%TO.C,CN2*%
X215625000Y-70075000D03*
D16*
%TO.N,/SCL*%
X215625000Y-67575000D03*
%TO.N,+5V*%
X215625000Y-65075000D03*
%TO.N,GND*%
X215625000Y-62575000D03*
%TD*%
D17*
%TO.N,GND*%
%TO.C,MH1*%
X219700000Y-45300000D03*
%TD*%
D18*
%TO.N,GND*%
%TO.C,SW1*%
X202700000Y-122800000D03*
%TO.N,Net-(SW1-COM)*%
X202700000Y-125300000D03*
%TO.N,unconnected-(SW1-NC-Pad3)*%
X202700000Y-127800000D03*
D19*
%TO.N,unconnected-(SW1-PadMH1)*%
X204900001Y-130899999D03*
%TO.N,unconnected-(SW1-PadMH2)*%
X201500000Y-119599999D03*
%TD*%
D17*
%TO.N,GND*%
%TO.C,MH3*%
X93700000Y-45300000D03*
%TD*%
D20*
%TO.N,Net-(PS1-RC)*%
%TO.C,PS1*%
X104290000Y-68140000D03*
D21*
%TO.N,GND*%
X104290000Y-75760000D03*
%TO.N,/+12V*%
X104290000Y-80840000D03*
%TO.N,+5V*%
X124610000Y-88460000D03*
%TO.N,unconnected-(PS1-TRM-Pad5)*%
X124610000Y-78300000D03*
%TO.N,GND*%
X124610000Y-68140000D03*
%TD*%
D22*
%TO.N,/o_5V_MUX7*%
%TO.C,CN1*%
X114430000Y-51530000D03*
D23*
%TO.N,/o_5V_MUX5*%
X115700000Y-49620000D03*
%TO.N,/o_5V_MUX3*%
X116970000Y-51530000D03*
%TO.N,/o_5V_MUX1*%
X118240000Y-49620000D03*
%TO.N,unconnected-(CN1-Pad5)*%
X119510000Y-51530000D03*
%TO.N,unconnected-(CN1-Pad6)*%
X120780000Y-49620000D03*
%TO.N,GND*%
X122050000Y-51530000D03*
%TO.N,unconnected-(CN1-Pad8)*%
X123320000Y-49620000D03*
%TO.N,/+12V*%
X124590000Y-51530000D03*
%TO.N,unconnected-(CN1-Pad10)*%
X125860000Y-49620000D03*
%TO.N,/o_5V_MUX6*%
X114430000Y-47710000D03*
%TO.N,/o_5V_MUX4*%
X115700000Y-45800000D03*
%TO.N,/o_5V_MUX2*%
X116970000Y-47710000D03*
%TO.N,/o_5V_MUX0*%
X118240000Y-45800000D03*
%TO.N,unconnected-(CN1-Pad15)*%
X119510000Y-47710000D03*
%TO.N,unconnected-(CN1-Pad16)*%
X120780000Y-45800000D03*
%TO.N,GND*%
X122050000Y-47710000D03*
%TO.N,unconnected-(CN1-Pad18)*%
X123320000Y-45800000D03*
%TO.N,/+12V*%
X124590000Y-47710000D03*
%TO.N,unconnected-(CN1-Pad20)*%
X125860000Y-45800000D03*
D24*
%TO.N,GND*%
X133870000Y-49620000D03*
X106420000Y-49620000D03*
%TD*%
D17*
%TO.N,GND*%
%TO.C,MH2*%
X219700000Y-129300000D03*
%TD*%
%TO.N,GND*%
%TO.C,MH4*%
X93700000Y-129300000D03*
%TD*%
D25*
%TO.N,GND*%
X219200000Y-100800000D03*
X155200000Y-88300000D03*
X210975000Y-62325000D03*
X152700000Y-108300000D03*
X152700000Y-60300000D03*
X94200000Y-104800000D03*
X167700000Y-78800000D03*
X99200000Y-110800000D03*
X179700000Y-116800000D03*
X204700000Y-55800000D03*
X157200000Y-72300000D03*
X152700000Y-72300000D03*
X157200000Y-48300000D03*
X162700000Y-78300000D03*
X162700000Y-54300000D03*
X139200000Y-123300000D03*
X162700000Y-126300000D03*
X214200000Y-100800000D03*
X99200000Y-104800000D03*
X104200000Y-114800000D03*
X157200000Y-60300000D03*
X157200000Y-120300000D03*
X219200000Y-95800000D03*
X214200000Y-110800000D03*
X105700000Y-62300000D03*
X131700000Y-104300000D03*
X129700000Y-111800000D03*
X171200000Y-58300000D03*
X209200000Y-110800000D03*
X219200000Y-105800000D03*
X150700000Y-60800000D03*
X146200000Y-60800000D03*
X152700000Y-84300000D03*
X175700000Y-119300000D03*
X130175000Y-68225000D03*
X155200000Y-80300000D03*
X150200000Y-84300000D03*
X219200000Y-85800000D03*
X136200000Y-78300000D03*
X214200000Y-115800000D03*
X168200000Y-53300000D03*
X94200000Y-122800000D03*
X147200000Y-56300000D03*
X209200000Y-115800000D03*
X155200000Y-112300000D03*
X219200000Y-110800000D03*
X214200000Y-95800000D03*
X94200000Y-114800000D03*
X152700000Y-48300000D03*
X100700000Y-58800000D03*
X157200000Y-108300000D03*
X113200000Y-109800000D03*
X214200000Y-80800000D03*
X219200000Y-80800000D03*
X121700000Y-115800000D03*
X194200000Y-121300000D03*
X206200000Y-77300000D03*
X155200000Y-76300000D03*
X162700000Y-114300000D03*
X214200000Y-90800000D03*
X152700000Y-96300000D03*
X164700000Y-81300000D03*
X139200000Y-116800000D03*
X162700000Y-66300000D03*
X135700000Y-101800000D03*
X136200000Y-68300000D03*
X214200000Y-75800000D03*
X174700000Y-62300000D03*
X214200000Y-85800000D03*
X194200000Y-100800000D03*
X94200000Y-62300000D03*
X169700000Y-47800000D03*
X100700000Y-62300000D03*
X152700000Y-120300000D03*
X168200000Y-88300000D03*
X194200000Y-110800000D03*
X105700000Y-59300000D03*
X94200000Y-58800000D03*
X128700000Y-60300000D03*
X94200000Y-79800000D03*
X175700000Y-66300000D03*
X157200000Y-84300000D03*
X209200000Y-105800000D03*
X104200000Y-122800000D03*
X99200000Y-100300000D03*
X94200000Y-95800000D03*
X209200000Y-100800000D03*
X162700000Y-102300000D03*
X155200000Y-64300000D03*
X115700000Y-54300000D03*
X207400001Y-122800000D03*
X214200000Y-105800000D03*
X117700000Y-56300000D03*
X150700000Y-108300000D03*
X94200000Y-87300000D03*
X157200000Y-96300000D03*
X155200000Y-52300000D03*
X219200000Y-115800000D03*
X129200000Y-95800000D03*
X182200000Y-109300000D03*
X145700000Y-62300000D03*
X219200000Y-90800000D03*
X136200000Y-60300000D03*
X150700000Y-120300000D03*
X124200000Y-110800000D03*
X188925000Y-97375000D03*
X97700000Y-75800000D03*
X155200000Y-124300000D03*
X169700000Y-55300000D03*
X99200000Y-95800000D03*
X175700000Y-114800000D03*
X155200000Y-100300000D03*
X130200000Y-120800000D03*
X219200000Y-75800000D03*
X135700000Y-106300000D03*
X162700000Y-90300000D03*
%TO.N,+5V*%
X150700000Y-104300000D03*
X169200000Y-112800000D03*
X203200000Y-51300000D03*
X208200000Y-57300000D03*
X159200000Y-92300000D03*
X150700000Y-44300000D03*
X150700000Y-68300000D03*
X159200000Y-56300000D03*
X169200000Y-121300000D03*
X159200000Y-44300000D03*
X144700000Y-108300000D03*
X150700000Y-80300000D03*
X150700000Y-116300000D03*
X150700000Y-56300000D03*
X159200000Y-80300000D03*
X159200000Y-104300000D03*
X150700000Y-92300000D03*
X159200000Y-68300000D03*
X207200000Y-51300000D03*
X144700000Y-99800000D03*
X144700000Y-88525000D03*
X159200000Y-116300000D03*
%TO.N,+3.3V*%
X206700000Y-62800000D03*
X206700000Y-67800000D03*
X204200000Y-82800000D03*
%TO.N,/o_5V_MUX7*%
X181200000Y-120300000D03*
%TO.N,/o_5V_MUX4*%
X151700000Y-101800000D03*
%TO.N,/o_5V_MUX0*%
X151700000Y-53800000D03*
%TO.N,/o_5V_MUX2*%
X151700000Y-77800000D03*
%TD*%
%TA.AperFunction,Conductor*%
%TO.N,+5V*%
G36*
X164416119Y-42826856D02*
G01*
X164451048Y-42831924D01*
X164466040Y-42836347D01*
X164481036Y-42846012D01*
X164498149Y-42851065D01*
X164524749Y-42874184D01*
X164524769Y-42874197D01*
X164524788Y-42874218D01*
X164526000Y-42875621D01*
X164553343Y-42930384D01*
X164554968Y-42937872D01*
X164557789Y-42964170D01*
X164557789Y-49327038D01*
X179027324Y-49327038D01*
X179062258Y-49332061D01*
X179083864Y-49338405D01*
X179133736Y-49366917D01*
X179136677Y-49369674D01*
X179142217Y-49375905D01*
X179142643Y-49376179D01*
X179142835Y-49376600D01*
X179151637Y-49386500D01*
X179161248Y-49399521D01*
X179161250Y-49399528D01*
X179161252Y-49399527D01*
X179214850Y-49472150D01*
X179324117Y-49552792D01*
X179324118Y-49552793D01*
X179452299Y-49597646D01*
X179452303Y-49597647D01*
X179470742Y-49599375D01*
X179482730Y-49600500D01*
X179482734Y-49600500D01*
X179482739Y-49600500D01*
X180891270Y-49600500D01*
X180891271Y-49600500D01*
X180892576Y-49600377D01*
X180921699Y-49597646D01*
X180921701Y-49597646D01*
X180985790Y-49575219D01*
X181049882Y-49552793D01*
X181159150Y-49472150D01*
X181212748Y-49399527D01*
X181218493Y-49391742D01*
X181243269Y-49366627D01*
X181261213Y-49353003D01*
X181313786Y-49329807D01*
X181317757Y-49329077D01*
X181340152Y-49327038D01*
X196553324Y-49327038D01*
X196588258Y-49332061D01*
X196609864Y-49338405D01*
X196659736Y-49366917D01*
X196662677Y-49369674D01*
X196668217Y-49375905D01*
X196668643Y-49376179D01*
X196668835Y-49376600D01*
X196677637Y-49386500D01*
X196687248Y-49399521D01*
X196687250Y-49399528D01*
X196687252Y-49399527D01*
X196740850Y-49472150D01*
X196850117Y-49552792D01*
X196850118Y-49552793D01*
X196978299Y-49597646D01*
X196978303Y-49597647D01*
X196996742Y-49599375D01*
X197008730Y-49600500D01*
X197008734Y-49600500D01*
X197008739Y-49600500D01*
X198417270Y-49600500D01*
X198417271Y-49600500D01*
X198418576Y-49600377D01*
X198447699Y-49597646D01*
X198447701Y-49597646D01*
X198511790Y-49575219D01*
X198575882Y-49552793D01*
X198685150Y-49472150D01*
X198738748Y-49399527D01*
X198744493Y-49391742D01*
X198769269Y-49366627D01*
X198787213Y-49353003D01*
X198839786Y-49329807D01*
X198843757Y-49329077D01*
X198866152Y-49327038D01*
X209415960Y-49327038D01*
X209450895Y-49332061D01*
X209465893Y-49336465D01*
X209524644Y-49374210D01*
X209524668Y-49374238D01*
X209524671Y-49374240D01*
X209524672Y-49374242D01*
X209525831Y-49375579D01*
X209553307Y-49430440D01*
X209554952Y-49437998D01*
X209557789Y-49464369D01*
X209557789Y-60185208D01*
X209557788Y-60185214D01*
X209557789Y-60185217D01*
X209552764Y-60220152D01*
X209548359Y-60235150D01*
X209510616Y-60293893D01*
X209510581Y-60293923D01*
X209510580Y-60293925D01*
X209510578Y-60293925D01*
X209509247Y-60295080D01*
X209454386Y-60322556D01*
X209446828Y-60324201D01*
X209420457Y-60327038D01*
X198838786Y-60327044D01*
X198803852Y-60322021D01*
X198782246Y-60315677D01*
X198732376Y-60287167D01*
X198729437Y-60284412D01*
X198723893Y-60278177D01*
X198723467Y-60277903D01*
X198723273Y-60277479D01*
X198714471Y-60267579D01*
X198710603Y-60262338D01*
X198685150Y-60227850D01*
X198575882Y-60147207D01*
X198575880Y-60147206D01*
X198447704Y-60102354D01*
X198447702Y-60102353D01*
X198447700Y-60102353D01*
X198417270Y-60099500D01*
X198417266Y-60099500D01*
X198417264Y-60099500D01*
X197008734Y-60099500D01*
X197008730Y-60099500D01*
X196990074Y-60101249D01*
X196984069Y-60101812D01*
X196980499Y-60101978D01*
X196978297Y-60102353D01*
X196850118Y-60147206D01*
X196740849Y-60227850D01*
X196740844Y-60227854D01*
X196715394Y-60262338D01*
X196710214Y-60267589D01*
X196690605Y-60287465D01*
X196672672Y-60301080D01*
X196620141Y-60324270D01*
X196618023Y-60324659D01*
X196616177Y-60324999D01*
X196607849Y-60325759D01*
X196607375Y-60325940D01*
X196606920Y-60325844D01*
X196593731Y-60327048D01*
X181312796Y-60327058D01*
X181277860Y-60322035D01*
X181256255Y-60315691D01*
X181244838Y-60309165D01*
X181235326Y-60307417D01*
X181206401Y-60287194D01*
X181203459Y-60284437D01*
X181188482Y-60267593D01*
X181159151Y-60227851D01*
X181125530Y-60203038D01*
X181125529Y-60203037D01*
X181125529Y-60203036D01*
X181049882Y-60147206D01*
X180921704Y-60102354D01*
X180921702Y-60102353D01*
X180921700Y-60102353D01*
X180891270Y-60099500D01*
X180891266Y-60099500D01*
X180891264Y-60099500D01*
X179482734Y-60099500D01*
X179482730Y-60099500D01*
X179464074Y-60101249D01*
X179458069Y-60101812D01*
X179454499Y-60101978D01*
X179452297Y-60102353D01*
X179324118Y-60147206D01*
X179214850Y-60227849D01*
X179214845Y-60227854D01*
X179189387Y-60262348D01*
X179189387Y-60262349D01*
X179164601Y-60287475D01*
X179146665Y-60301093D01*
X179094118Y-60324285D01*
X179090158Y-60325014D01*
X179081843Y-60325772D01*
X179081368Y-60325954D01*
X179080911Y-60325857D01*
X179067724Y-60327061D01*
X170166839Y-60327067D01*
X170192755Y-127335855D01*
X170192754Y-127335860D01*
X170192755Y-127335863D01*
X170187743Y-127370800D01*
X170183345Y-127385796D01*
X170145599Y-127444578D01*
X170144085Y-127445891D01*
X170089601Y-127473291D01*
X170082370Y-127474889D01*
X170056373Y-127477808D01*
X143829310Y-127638757D01*
X143829310Y-127638758D01*
X143829309Y-127638757D01*
X143829309Y-127638758D01*
X143794346Y-127633950D01*
X143779320Y-127629638D01*
X143762007Y-127618661D01*
X143720316Y-127592229D01*
X143719121Y-127590867D01*
X143691327Y-127536182D01*
X143689636Y-127528632D01*
X143686642Y-127502300D01*
X143686422Y-127466504D01*
X143682126Y-126766391D01*
X143678860Y-126234108D01*
X162199500Y-126234108D01*
X162199500Y-126365891D01*
X162216554Y-126429539D01*
X162233608Y-126493188D01*
X162266554Y-126550250D01*
X162299500Y-126607314D01*
X162392686Y-126700500D01*
X162506814Y-126766392D01*
X162634108Y-126800500D01*
X162634110Y-126800500D01*
X162765890Y-126800500D01*
X162765892Y-126800500D01*
X162893186Y-126766392D01*
X163007314Y-126700500D01*
X163100500Y-126607314D01*
X163166392Y-126493186D01*
X163200500Y-126365892D01*
X163200500Y-126234108D01*
X163166392Y-126106814D01*
X163166387Y-126106806D01*
X163157563Y-126091521D01*
X163100500Y-125992686D01*
X163007314Y-125899500D01*
X162950250Y-125866554D01*
X162893187Y-125833608D01*
X162829539Y-125816554D01*
X162765892Y-125799500D01*
X162765891Y-125799500D01*
X162634108Y-125799500D01*
X162506808Y-125833609D01*
X162506806Y-125833610D01*
X162392696Y-125899493D01*
X162392682Y-125899502D01*
X162392677Y-125899506D01*
X162299506Y-125992677D01*
X162299502Y-125992682D01*
X162299493Y-125992696D01*
X162233610Y-126106806D01*
X162233609Y-126106808D01*
X162233608Y-126106812D01*
X162199500Y-126234108D01*
X143678860Y-126234108D01*
X143666586Y-124234108D01*
X154699500Y-124234108D01*
X154699500Y-124365891D01*
X154716554Y-124429539D01*
X154733608Y-124493188D01*
X154766554Y-124550250D01*
X154799500Y-124607314D01*
X154892686Y-124700500D01*
X155006814Y-124766392D01*
X155134108Y-124800500D01*
X155134110Y-124800500D01*
X155265890Y-124800500D01*
X155265892Y-124800500D01*
X155393186Y-124766392D01*
X155507314Y-124700500D01*
X155600500Y-124607314D01*
X155666392Y-124493186D01*
X155700500Y-124365892D01*
X155700500Y-124234108D01*
X155666392Y-124106814D01*
X155666387Y-124106806D01*
X155657563Y-124091521D01*
X155600500Y-123992686D01*
X155507314Y-123899500D01*
X155450250Y-123866554D01*
X155393187Y-123833608D01*
X155329539Y-123816554D01*
X155265892Y-123799500D01*
X155265891Y-123799500D01*
X155134108Y-123799500D01*
X155006808Y-123833609D01*
X155006806Y-123833610D01*
X154892696Y-123899493D01*
X154892682Y-123899502D01*
X154892677Y-123899506D01*
X154799506Y-123992677D01*
X154799502Y-123992682D01*
X154799493Y-123992696D01*
X154733610Y-124106806D01*
X154733609Y-124106808D01*
X154733608Y-124106812D01*
X154699500Y-124234108D01*
X143666586Y-124234108D01*
X143665805Y-124106812D01*
X143642039Y-120234108D01*
X150199500Y-120234108D01*
X150199500Y-120365891D01*
X150216554Y-120429539D01*
X150233608Y-120493188D01*
X150266554Y-120550250D01*
X150299500Y-120607314D01*
X150392686Y-120700500D01*
X150506814Y-120766392D01*
X150634108Y-120800500D01*
X150634110Y-120800500D01*
X150765890Y-120800500D01*
X150765892Y-120800500D01*
X150893186Y-120766392D01*
X151007314Y-120700500D01*
X151100500Y-120607314D01*
X151166392Y-120493186D01*
X151200500Y-120365892D01*
X151200500Y-120234108D01*
X152199500Y-120234108D01*
X152199500Y-120365891D01*
X152216554Y-120429539D01*
X152233608Y-120493188D01*
X152266554Y-120550250D01*
X152299500Y-120607314D01*
X152392686Y-120700500D01*
X152506814Y-120766392D01*
X152634108Y-120800500D01*
X152634110Y-120800500D01*
X152765890Y-120800500D01*
X152765892Y-120800500D01*
X152893186Y-120766392D01*
X153007314Y-120700500D01*
X153100500Y-120607314D01*
X153166392Y-120493186D01*
X153200500Y-120365892D01*
X153200500Y-120234108D01*
X156699500Y-120234108D01*
X156699500Y-120365891D01*
X156716554Y-120429539D01*
X156733608Y-120493188D01*
X156766554Y-120550250D01*
X156799500Y-120607314D01*
X156892686Y-120700500D01*
X157006814Y-120766392D01*
X157134108Y-120800500D01*
X157134110Y-120800500D01*
X157265890Y-120800500D01*
X157265892Y-120800500D01*
X157393186Y-120766392D01*
X157507314Y-120700500D01*
X157600500Y-120607314D01*
X157666392Y-120493186D01*
X157700500Y-120365892D01*
X157700500Y-120234108D01*
X157666392Y-120106814D01*
X157666387Y-120106806D01*
X157657563Y-120091521D01*
X157600500Y-119992686D01*
X157507314Y-119899500D01*
X157450250Y-119866554D01*
X157393187Y-119833608D01*
X157329539Y-119816554D01*
X157265892Y-119799500D01*
X157265891Y-119799500D01*
X157134108Y-119799500D01*
X157006808Y-119833609D01*
X157006806Y-119833610D01*
X156892696Y-119899493D01*
X156892682Y-119899502D01*
X156892677Y-119899506D01*
X156799506Y-119992677D01*
X156799502Y-119992682D01*
X156799493Y-119992696D01*
X156733610Y-120106806D01*
X156733609Y-120106808D01*
X156733608Y-120106812D01*
X156699500Y-120234108D01*
X153200500Y-120234108D01*
X153166392Y-120106814D01*
X153166387Y-120106806D01*
X153157563Y-120091521D01*
X153100500Y-119992686D01*
X153007314Y-119899500D01*
X152950250Y-119866554D01*
X152893187Y-119833608D01*
X152829539Y-119816554D01*
X152765892Y-119799500D01*
X152765891Y-119799500D01*
X152634108Y-119799500D01*
X152506808Y-119833609D01*
X152506806Y-119833610D01*
X152392696Y-119899493D01*
X152392682Y-119899502D01*
X152392677Y-119899506D01*
X152299506Y-119992677D01*
X152299502Y-119992682D01*
X152299493Y-119992696D01*
X152233610Y-120106806D01*
X152233609Y-120106808D01*
X152233608Y-120106812D01*
X152199500Y-120234108D01*
X151200500Y-120234108D01*
X151166392Y-120106814D01*
X151166387Y-120106806D01*
X151157563Y-120091521D01*
X151100500Y-119992686D01*
X151007314Y-119899500D01*
X150950250Y-119866554D01*
X150893187Y-119833608D01*
X150829539Y-119816554D01*
X150765892Y-119799500D01*
X150765891Y-119799500D01*
X150634108Y-119799500D01*
X150506808Y-119833609D01*
X150506806Y-119833610D01*
X150392696Y-119899493D01*
X150392682Y-119899502D01*
X150392677Y-119899506D01*
X150299506Y-119992677D01*
X150299502Y-119992682D01*
X150299493Y-119992696D01*
X150233610Y-120106806D01*
X150233609Y-120106808D01*
X150233608Y-120106812D01*
X150199500Y-120234108D01*
X143642039Y-120234108D01*
X143641994Y-120226742D01*
X143605218Y-114234108D01*
X162199500Y-114234108D01*
X162199500Y-114365891D01*
X162216554Y-114429539D01*
X162233608Y-114493188D01*
X162266554Y-114550250D01*
X162299500Y-114607314D01*
X162392686Y-114700500D01*
X162506814Y-114766392D01*
X162634108Y-114800500D01*
X162634110Y-114800500D01*
X162765890Y-114800500D01*
X162765892Y-114800500D01*
X162893186Y-114766392D01*
X163007314Y-114700500D01*
X163100500Y-114607314D01*
X163166392Y-114493186D01*
X163200500Y-114365892D01*
X163200500Y-114234108D01*
X163166392Y-114106814D01*
X163166387Y-114106806D01*
X163157563Y-114091521D01*
X163100500Y-113992686D01*
X163007314Y-113899500D01*
X162950250Y-113866554D01*
X162893187Y-113833608D01*
X162829539Y-113816554D01*
X162765892Y-113799500D01*
X162765891Y-113799500D01*
X162634108Y-113799500D01*
X162506808Y-113833609D01*
X162506806Y-113833610D01*
X162392696Y-113899493D01*
X162392682Y-113899502D01*
X162392677Y-113899506D01*
X162299506Y-113992677D01*
X162299502Y-113992682D01*
X162299493Y-113992696D01*
X162233610Y-114106806D01*
X162233609Y-114106808D01*
X162233608Y-114106812D01*
X162199500Y-114234108D01*
X143605218Y-114234108D01*
X143605173Y-114226742D01*
X143596211Y-112766391D01*
X143592944Y-112234108D01*
X154699500Y-112234108D01*
X154699500Y-112365891D01*
X154716554Y-112429539D01*
X154733608Y-112493188D01*
X154766554Y-112550250D01*
X154799500Y-112607314D01*
X154892686Y-112700500D01*
X155006814Y-112766392D01*
X155134108Y-112800500D01*
X155134110Y-112800500D01*
X155265890Y-112800500D01*
X155265892Y-112800500D01*
X155393186Y-112766392D01*
X155507314Y-112700500D01*
X155600500Y-112607314D01*
X155666392Y-112493186D01*
X155700500Y-112365892D01*
X155700500Y-112234108D01*
X155666392Y-112106814D01*
X155666387Y-112106806D01*
X155657563Y-112091521D01*
X155600500Y-111992686D01*
X155507314Y-111899500D01*
X155450250Y-111866554D01*
X155393187Y-111833608D01*
X155329539Y-111816554D01*
X155265892Y-111799500D01*
X155265891Y-111799500D01*
X155134108Y-111799500D01*
X155006808Y-111833609D01*
X155006806Y-111833610D01*
X154892696Y-111899493D01*
X154892682Y-111899502D01*
X154892677Y-111899506D01*
X154799506Y-111992677D01*
X154799502Y-111992682D01*
X154799493Y-111992696D01*
X154733610Y-112106806D01*
X154733609Y-112106808D01*
X154733608Y-112106812D01*
X154699500Y-112234108D01*
X143592944Y-112234108D01*
X143568397Y-108234108D01*
X150199500Y-108234108D01*
X150199500Y-108365891D01*
X150216554Y-108429539D01*
X150233608Y-108493188D01*
X150266554Y-108550250D01*
X150299500Y-108607314D01*
X150392686Y-108700500D01*
X150506814Y-108766392D01*
X150634108Y-108800500D01*
X150634110Y-108800500D01*
X150765890Y-108800500D01*
X150765892Y-108800500D01*
X150893186Y-108766392D01*
X151007314Y-108700500D01*
X151100500Y-108607314D01*
X151166392Y-108493186D01*
X151200500Y-108365892D01*
X151200500Y-108234108D01*
X152199500Y-108234108D01*
X152199500Y-108365891D01*
X152216554Y-108429539D01*
X152233608Y-108493188D01*
X152266554Y-108550250D01*
X152299500Y-108607314D01*
X152392686Y-108700500D01*
X152506814Y-108766392D01*
X152634108Y-108800500D01*
X152634110Y-108800500D01*
X152765890Y-108800500D01*
X152765892Y-108800500D01*
X152893186Y-108766392D01*
X153007314Y-108700500D01*
X153100500Y-108607314D01*
X153166392Y-108493186D01*
X153200500Y-108365892D01*
X153200500Y-108234108D01*
X156699500Y-108234108D01*
X156699500Y-108365891D01*
X156716554Y-108429539D01*
X156733608Y-108493188D01*
X156766554Y-108550250D01*
X156799500Y-108607314D01*
X156892686Y-108700500D01*
X157006814Y-108766392D01*
X157134108Y-108800500D01*
X157134110Y-108800500D01*
X157265890Y-108800500D01*
X157265892Y-108800500D01*
X157393186Y-108766392D01*
X157507314Y-108700500D01*
X157600500Y-108607314D01*
X157666392Y-108493186D01*
X157700500Y-108365892D01*
X157700500Y-108234108D01*
X157666392Y-108106814D01*
X157666387Y-108106806D01*
X157657563Y-108091521D01*
X157600500Y-107992686D01*
X157507314Y-107899500D01*
X157450250Y-107866554D01*
X157393187Y-107833608D01*
X157329539Y-107816554D01*
X157265892Y-107799500D01*
X157265891Y-107799500D01*
X157134108Y-107799500D01*
X157006808Y-107833609D01*
X157006806Y-107833610D01*
X156892696Y-107899493D01*
X156892682Y-107899502D01*
X156892677Y-107899506D01*
X156799506Y-107992677D01*
X156799502Y-107992682D01*
X156799493Y-107992696D01*
X156733610Y-108106806D01*
X156733609Y-108106808D01*
X156733608Y-108106812D01*
X156699500Y-108234108D01*
X153200500Y-108234108D01*
X153166392Y-108106814D01*
X153166387Y-108106806D01*
X153157563Y-108091521D01*
X153100500Y-107992686D01*
X153007314Y-107899500D01*
X152950250Y-107866554D01*
X152893187Y-107833608D01*
X152829539Y-107816554D01*
X152765892Y-107799500D01*
X152765891Y-107799500D01*
X152634108Y-107799500D01*
X152506808Y-107833609D01*
X152506806Y-107833610D01*
X152392696Y-107899493D01*
X152392682Y-107899502D01*
X152392677Y-107899506D01*
X152299506Y-107992677D01*
X152299502Y-107992682D01*
X152299493Y-107992696D01*
X152233610Y-108106806D01*
X152233609Y-108106808D01*
X152233608Y-108106812D01*
X152199500Y-108234108D01*
X151200500Y-108234108D01*
X151166392Y-108106814D01*
X151166387Y-108106806D01*
X151157563Y-108091521D01*
X151100500Y-107992686D01*
X151007314Y-107899500D01*
X150950250Y-107866554D01*
X150893187Y-107833608D01*
X150829539Y-107816554D01*
X150765892Y-107799500D01*
X150765891Y-107799500D01*
X150634108Y-107799500D01*
X150506808Y-107833609D01*
X150506806Y-107833610D01*
X150392696Y-107899493D01*
X150392682Y-107899502D01*
X150392677Y-107899506D01*
X150299506Y-107992677D01*
X150299502Y-107992682D01*
X150299493Y-107992696D01*
X150233610Y-108106806D01*
X150233609Y-108106808D01*
X150233608Y-108106812D01*
X150199500Y-108234108D01*
X143568397Y-108234108D01*
X143533517Y-102550250D01*
X143528508Y-101734108D01*
X151199500Y-101734108D01*
X151199500Y-101865891D01*
X151208505Y-101899498D01*
X151233608Y-101993188D01*
X151266554Y-102050250D01*
X151299500Y-102107314D01*
X151392686Y-102200500D01*
X151506814Y-102266392D01*
X151634108Y-102300500D01*
X151634110Y-102300500D01*
X151765890Y-102300500D01*
X151765892Y-102300500D01*
X151893186Y-102266392D01*
X151949103Y-102234108D01*
X162199500Y-102234108D01*
X162199500Y-102365891D01*
X162216554Y-102429539D01*
X162233608Y-102493188D01*
X162266554Y-102550250D01*
X162299500Y-102607314D01*
X162392686Y-102700500D01*
X162506814Y-102766392D01*
X162634108Y-102800500D01*
X162634110Y-102800500D01*
X162765890Y-102800500D01*
X162765892Y-102800500D01*
X162893186Y-102766392D01*
X163007314Y-102700500D01*
X163100500Y-102607314D01*
X163166392Y-102493186D01*
X163200500Y-102365892D01*
X163200500Y-102234108D01*
X163166392Y-102106814D01*
X163166387Y-102106806D01*
X163157563Y-102091521D01*
X163100500Y-101992686D01*
X163007314Y-101899500D01*
X162949100Y-101865890D01*
X162893187Y-101833608D01*
X162829539Y-101816554D01*
X162765892Y-101799500D01*
X162765891Y-101799500D01*
X162634108Y-101799500D01*
X162506808Y-101833609D01*
X162506806Y-101833610D01*
X162392696Y-101899493D01*
X162392682Y-101899502D01*
X162392677Y-101899506D01*
X162299506Y-101992677D01*
X162299502Y-101992682D01*
X162299493Y-101992696D01*
X162233610Y-102106806D01*
X162233609Y-102106808D01*
X162233474Y-102107313D01*
X162199500Y-102234108D01*
X151949103Y-102234108D01*
X152007314Y-102200500D01*
X152100500Y-102107314D01*
X152166392Y-101993186D01*
X152200500Y-101865892D01*
X152200500Y-101734108D01*
X152166392Y-101606814D01*
X152166387Y-101606806D01*
X152157563Y-101591521D01*
X152100500Y-101492686D01*
X152007314Y-101399500D01*
X151950250Y-101366554D01*
X151893187Y-101333608D01*
X151829539Y-101316554D01*
X151765892Y-101299500D01*
X151765891Y-101299500D01*
X151634108Y-101299500D01*
X151506808Y-101333609D01*
X151506806Y-101333610D01*
X151392696Y-101399493D01*
X151392682Y-101399502D01*
X151392677Y-101399506D01*
X151299506Y-101492677D01*
X151299502Y-101492682D01*
X151299493Y-101492696D01*
X151233610Y-101606806D01*
X151233609Y-101606808D01*
X151233608Y-101606812D01*
X151199500Y-101734108D01*
X143528508Y-101734108D01*
X143528463Y-101726742D01*
X143519303Y-100234108D01*
X154699500Y-100234108D01*
X154699500Y-100365891D01*
X154716554Y-100429539D01*
X154733608Y-100493188D01*
X154766554Y-100550250D01*
X154799500Y-100607314D01*
X154892686Y-100700500D01*
X155006814Y-100766392D01*
X155134108Y-100800500D01*
X155134110Y-100800500D01*
X155265890Y-100800500D01*
X155265892Y-100800500D01*
X155393186Y-100766392D01*
X155507314Y-100700500D01*
X155600500Y-100607314D01*
X155666392Y-100493186D01*
X155700500Y-100365892D01*
X155700500Y-100234108D01*
X155666392Y-100106814D01*
X155666387Y-100106806D01*
X155657563Y-100091521D01*
X155600500Y-99992686D01*
X155507314Y-99899500D01*
X155450250Y-99866554D01*
X155393187Y-99833608D01*
X155329539Y-99816554D01*
X155265892Y-99799500D01*
X155265891Y-99799500D01*
X155134108Y-99799500D01*
X155006808Y-99833609D01*
X155006806Y-99833610D01*
X154892696Y-99899493D01*
X154892682Y-99899502D01*
X154892677Y-99899506D01*
X154799506Y-99992677D01*
X154799502Y-99992682D01*
X154799493Y-99992696D01*
X154733610Y-100106806D01*
X154733609Y-100106808D01*
X154733608Y-100106812D01*
X154699500Y-100234108D01*
X143519303Y-100234108D01*
X143519258Y-100226742D01*
X143498022Y-96766391D01*
X143494756Y-96234108D01*
X152199500Y-96234108D01*
X152199500Y-96365891D01*
X152216554Y-96429539D01*
X152233608Y-96493188D01*
X152266554Y-96550250D01*
X152299500Y-96607314D01*
X152392686Y-96700500D01*
X152506814Y-96766392D01*
X152634108Y-96800500D01*
X152634110Y-96800500D01*
X152765890Y-96800500D01*
X152765892Y-96800500D01*
X152893186Y-96766392D01*
X153007314Y-96700500D01*
X153100500Y-96607314D01*
X153166392Y-96493186D01*
X153200500Y-96365892D01*
X153200500Y-96234108D01*
X156699500Y-96234108D01*
X156699500Y-96365891D01*
X156716554Y-96429539D01*
X156733608Y-96493188D01*
X156766554Y-96550250D01*
X156799500Y-96607314D01*
X156892686Y-96700500D01*
X157006814Y-96766392D01*
X157134108Y-96800500D01*
X157134110Y-96800500D01*
X157265890Y-96800500D01*
X157265892Y-96800500D01*
X157393186Y-96766392D01*
X157507314Y-96700500D01*
X157600500Y-96607314D01*
X157666392Y-96493186D01*
X157700500Y-96365892D01*
X157700500Y-96234108D01*
X157666392Y-96106814D01*
X157666387Y-96106806D01*
X157657563Y-96091521D01*
X157600500Y-95992686D01*
X157507314Y-95899500D01*
X157450250Y-95866554D01*
X157393187Y-95833608D01*
X157329539Y-95816554D01*
X157265892Y-95799500D01*
X157265891Y-95799500D01*
X157134108Y-95799500D01*
X157006808Y-95833609D01*
X157006806Y-95833610D01*
X156892696Y-95899493D01*
X156892682Y-95899502D01*
X156892677Y-95899506D01*
X156799506Y-95992677D01*
X156799502Y-95992682D01*
X156799493Y-95992696D01*
X156733610Y-96106806D01*
X156733609Y-96106808D01*
X156733608Y-96106812D01*
X156699500Y-96234108D01*
X153200500Y-96234108D01*
X153166392Y-96106814D01*
X153166387Y-96106806D01*
X153157563Y-96091521D01*
X153100500Y-95992686D01*
X153007314Y-95899500D01*
X152950250Y-95866554D01*
X152893187Y-95833608D01*
X152829539Y-95816554D01*
X152765892Y-95799500D01*
X152765891Y-95799500D01*
X152634108Y-95799500D01*
X152506808Y-95833609D01*
X152506806Y-95833610D01*
X152392696Y-95899493D01*
X152392682Y-95899502D01*
X152392677Y-95899506D01*
X152299506Y-95992677D01*
X152299502Y-95992682D01*
X152299493Y-95992696D01*
X152233610Y-96106806D01*
X152233609Y-96106808D01*
X152233608Y-96106812D01*
X152199500Y-96234108D01*
X143494756Y-96234108D01*
X143493274Y-95992683D01*
X143461202Y-90766391D01*
X143457936Y-90234108D01*
X162199500Y-90234108D01*
X162199500Y-90365891D01*
X162216554Y-90429539D01*
X162233608Y-90493188D01*
X162266554Y-90550250D01*
X162299500Y-90607314D01*
X162392686Y-90700500D01*
X162506814Y-90766392D01*
X162634108Y-90800500D01*
X162634110Y-90800500D01*
X162765890Y-90800500D01*
X162765892Y-90800500D01*
X162893186Y-90766392D01*
X163007314Y-90700500D01*
X163100500Y-90607314D01*
X163166392Y-90493186D01*
X163200500Y-90365892D01*
X163200500Y-90234108D01*
X163166392Y-90106814D01*
X163166387Y-90106806D01*
X163157563Y-90091521D01*
X163100500Y-89992686D01*
X163007314Y-89899500D01*
X162950250Y-89866554D01*
X162893187Y-89833608D01*
X162829539Y-89816554D01*
X162765892Y-89799500D01*
X162765891Y-89799500D01*
X162634108Y-89799500D01*
X162506808Y-89833609D01*
X162506806Y-89833610D01*
X162392696Y-89899493D01*
X162392682Y-89899502D01*
X162392677Y-89899506D01*
X162299506Y-89992677D01*
X162299502Y-89992682D01*
X162299493Y-89992696D01*
X162233610Y-90106806D01*
X162233609Y-90106808D01*
X162233608Y-90106812D01*
X162199500Y-90234108D01*
X143457936Y-90234108D01*
X143449138Y-88800499D01*
X143445662Y-88234108D01*
X154699500Y-88234108D01*
X154699500Y-88365891D01*
X154716554Y-88429539D01*
X154733608Y-88493188D01*
X154766554Y-88550250D01*
X154799500Y-88607314D01*
X154892686Y-88700500D01*
X155006814Y-88766392D01*
X155134108Y-88800500D01*
X155134110Y-88800500D01*
X155265890Y-88800500D01*
X155265892Y-88800500D01*
X155393186Y-88766392D01*
X155507314Y-88700500D01*
X155600500Y-88607314D01*
X155666392Y-88493186D01*
X155700500Y-88365892D01*
X155700500Y-88234108D01*
X167699500Y-88234108D01*
X167699500Y-88365891D01*
X167716554Y-88429539D01*
X167733608Y-88493188D01*
X167766554Y-88550250D01*
X167799500Y-88607314D01*
X167892686Y-88700500D01*
X168006814Y-88766392D01*
X168134108Y-88800500D01*
X168134110Y-88800500D01*
X168265890Y-88800500D01*
X168265892Y-88800500D01*
X168393186Y-88766392D01*
X168507314Y-88700500D01*
X168600500Y-88607314D01*
X168666392Y-88493186D01*
X168700500Y-88365892D01*
X168700500Y-88234108D01*
X168666392Y-88106814D01*
X168666387Y-88106806D01*
X168657563Y-88091521D01*
X168600500Y-87992686D01*
X168507314Y-87899500D01*
X168450250Y-87866554D01*
X168393187Y-87833608D01*
X168329539Y-87816554D01*
X168265892Y-87799500D01*
X168265891Y-87799500D01*
X168134108Y-87799500D01*
X168006808Y-87833609D01*
X168006806Y-87833610D01*
X167892696Y-87899493D01*
X167892682Y-87899502D01*
X167892677Y-87899506D01*
X167799506Y-87992677D01*
X167799502Y-87992682D01*
X167799493Y-87992696D01*
X167733610Y-88106806D01*
X167733609Y-88106808D01*
X167733608Y-88106812D01*
X167699500Y-88234108D01*
X155700500Y-88234108D01*
X155666392Y-88106814D01*
X155666387Y-88106806D01*
X155657563Y-88091521D01*
X155600500Y-87992686D01*
X155507314Y-87899500D01*
X155450250Y-87866554D01*
X155393187Y-87833608D01*
X155329539Y-87816554D01*
X155265892Y-87799500D01*
X155265891Y-87799500D01*
X155134108Y-87799500D01*
X155006808Y-87833609D01*
X155006806Y-87833610D01*
X154892696Y-87899493D01*
X154892682Y-87899502D01*
X154892677Y-87899506D01*
X154799506Y-87992677D01*
X154799502Y-87992682D01*
X154799493Y-87992696D01*
X154733610Y-88106806D01*
X154733609Y-88106808D01*
X154733608Y-88106812D01*
X154699500Y-88234108D01*
X143445662Y-88234108D01*
X143445617Y-88226742D01*
X143421115Y-84234108D01*
X149699500Y-84234108D01*
X149699500Y-84365891D01*
X149716554Y-84429539D01*
X149733608Y-84493188D01*
X149766554Y-84550250D01*
X149799500Y-84607314D01*
X149892686Y-84700500D01*
X150006814Y-84766392D01*
X150134108Y-84800500D01*
X150134110Y-84800500D01*
X150265890Y-84800500D01*
X150265892Y-84800500D01*
X150393186Y-84766392D01*
X150507314Y-84700500D01*
X150600500Y-84607314D01*
X150666392Y-84493186D01*
X150700500Y-84365892D01*
X150700500Y-84234108D01*
X152199500Y-84234108D01*
X152199500Y-84365891D01*
X152216554Y-84429539D01*
X152233608Y-84493188D01*
X152266554Y-84550250D01*
X152299500Y-84607314D01*
X152392686Y-84700500D01*
X152506814Y-84766392D01*
X152634108Y-84800500D01*
X152634110Y-84800500D01*
X152765890Y-84800500D01*
X152765892Y-84800500D01*
X152893186Y-84766392D01*
X153007314Y-84700500D01*
X153100500Y-84607314D01*
X153166392Y-84493186D01*
X153200500Y-84365892D01*
X153200500Y-84234108D01*
X156699500Y-84234108D01*
X156699500Y-84365891D01*
X156716554Y-84429539D01*
X156733608Y-84493188D01*
X156766554Y-84550250D01*
X156799500Y-84607314D01*
X156892686Y-84700500D01*
X157006814Y-84766392D01*
X157134108Y-84800500D01*
X157134110Y-84800500D01*
X157265890Y-84800500D01*
X157265892Y-84800500D01*
X157393186Y-84766392D01*
X157507314Y-84700500D01*
X157600500Y-84607314D01*
X157666392Y-84493186D01*
X157700500Y-84365892D01*
X157700500Y-84234108D01*
X157666392Y-84106814D01*
X157666387Y-84106806D01*
X157657563Y-84091521D01*
X157600500Y-83992686D01*
X157507314Y-83899500D01*
X157450250Y-83866554D01*
X157393187Y-83833608D01*
X157329539Y-83816554D01*
X157265892Y-83799500D01*
X157265891Y-83799500D01*
X157134108Y-83799500D01*
X157006808Y-83833609D01*
X157006806Y-83833610D01*
X156892696Y-83899493D01*
X156892682Y-83899502D01*
X156892677Y-83899506D01*
X156799506Y-83992677D01*
X156799502Y-83992682D01*
X156799493Y-83992696D01*
X156733610Y-84106806D01*
X156733609Y-84106808D01*
X156733608Y-84106812D01*
X156699500Y-84234108D01*
X153200500Y-84234108D01*
X153166392Y-84106814D01*
X153166387Y-84106806D01*
X153157563Y-84091521D01*
X153100500Y-83992686D01*
X153007314Y-83899500D01*
X152950250Y-83866554D01*
X152893187Y-83833608D01*
X152829539Y-83816554D01*
X152765892Y-83799500D01*
X152765891Y-83799500D01*
X152634108Y-83799500D01*
X152506808Y-83833609D01*
X152506806Y-83833610D01*
X152392696Y-83899493D01*
X152392682Y-83899502D01*
X152392677Y-83899506D01*
X152299506Y-83992677D01*
X152299502Y-83992682D01*
X152299493Y-83992696D01*
X152233610Y-84106806D01*
X152233609Y-84106808D01*
X152233608Y-84106812D01*
X152199500Y-84234108D01*
X150700500Y-84234108D01*
X150666392Y-84106814D01*
X150666387Y-84106806D01*
X150657563Y-84091521D01*
X150600500Y-83992686D01*
X150507314Y-83899500D01*
X150450250Y-83866554D01*
X150393187Y-83833608D01*
X150329539Y-83816554D01*
X150265892Y-83799500D01*
X150265891Y-83799500D01*
X150134108Y-83799500D01*
X150006808Y-83833609D01*
X150006806Y-83833610D01*
X149892696Y-83899493D01*
X149892682Y-83899502D01*
X149892677Y-83899506D01*
X149799506Y-83992677D01*
X149799502Y-83992682D01*
X149799493Y-83992696D01*
X149733610Y-84106806D01*
X149733609Y-84106808D01*
X149733608Y-84106812D01*
X149699500Y-84234108D01*
X143421115Y-84234108D01*
X143421070Y-84226742D01*
X143402705Y-81234108D01*
X164199500Y-81234108D01*
X164199500Y-81365891D01*
X164216554Y-81429539D01*
X164233608Y-81493188D01*
X164266554Y-81550250D01*
X164299500Y-81607314D01*
X164392686Y-81700500D01*
X164506814Y-81766392D01*
X164634108Y-81800500D01*
X164634110Y-81800500D01*
X164765890Y-81800500D01*
X164765892Y-81800500D01*
X164893186Y-81766392D01*
X165007314Y-81700500D01*
X165100500Y-81607314D01*
X165166392Y-81493186D01*
X165200500Y-81365892D01*
X165200500Y-81234108D01*
X165166392Y-81106814D01*
X165166387Y-81106806D01*
X165157563Y-81091521D01*
X165100500Y-80992686D01*
X165007314Y-80899500D01*
X164950250Y-80866554D01*
X164893187Y-80833608D01*
X164829539Y-80816554D01*
X164765892Y-80799500D01*
X164765891Y-80799500D01*
X164634108Y-80799500D01*
X164506808Y-80833609D01*
X164506806Y-80833610D01*
X164392696Y-80899493D01*
X164392682Y-80899502D01*
X164392677Y-80899506D01*
X164299506Y-80992677D01*
X164299502Y-80992682D01*
X164299493Y-80992696D01*
X164233610Y-81106806D01*
X164233609Y-81106808D01*
X164233608Y-81106812D01*
X164199500Y-81234108D01*
X143402705Y-81234108D01*
X143402660Y-81226742D01*
X143396568Y-80234108D01*
X154699500Y-80234108D01*
X154699500Y-80365891D01*
X154699500Y-80365892D01*
X154733609Y-80493189D01*
X154737615Y-80500128D01*
X154737616Y-80500128D01*
X154799500Y-80607314D01*
X154892686Y-80700500D01*
X155006814Y-80766392D01*
X155134108Y-80800500D01*
X155134110Y-80800500D01*
X155265890Y-80800500D01*
X155265892Y-80800500D01*
X155393186Y-80766392D01*
X155507314Y-80700500D01*
X155600500Y-80607314D01*
X155666392Y-80493186D01*
X155700500Y-80365892D01*
X155700500Y-80234108D01*
X155666392Y-80106814D01*
X155666387Y-80106806D01*
X155657563Y-80091521D01*
X155600500Y-79992686D01*
X155507314Y-79899500D01*
X155450250Y-79866554D01*
X155393187Y-79833608D01*
X155329539Y-79816554D01*
X155265892Y-79799500D01*
X155265891Y-79799500D01*
X155134108Y-79799500D01*
X155006808Y-79833609D01*
X155006806Y-79833610D01*
X154892696Y-79899493D01*
X154892682Y-79899502D01*
X154892677Y-79899506D01*
X154799506Y-79992677D01*
X154799502Y-79992682D01*
X154799493Y-79992696D01*
X154733610Y-80106806D01*
X154733609Y-80106808D01*
X154733608Y-80106812D01*
X154699500Y-80234108D01*
X143396568Y-80234108D01*
X143396523Y-80226742D01*
X143381226Y-77734108D01*
X151199500Y-77734108D01*
X151199500Y-77865891D01*
X151233608Y-77993187D01*
X151259925Y-78038768D01*
X151299500Y-78107314D01*
X151392686Y-78200500D01*
X151392687Y-78200501D01*
X151392689Y-78200502D01*
X151491521Y-78257563D01*
X151501063Y-78263072D01*
X151501068Y-78263075D01*
X151501067Y-78263075D01*
X151506812Y-78266391D01*
X151506814Y-78266392D01*
X151634108Y-78300500D01*
X151634110Y-78300500D01*
X151765890Y-78300500D01*
X151765892Y-78300500D01*
X151893186Y-78266392D01*
X151949103Y-78234108D01*
X162199500Y-78234108D01*
X162199500Y-78365891D01*
X162208505Y-78399498D01*
X162233608Y-78493188D01*
X162266554Y-78550250D01*
X162299500Y-78607314D01*
X162392686Y-78700500D01*
X162506814Y-78766392D01*
X162634108Y-78800500D01*
X162634110Y-78800500D01*
X162765890Y-78800500D01*
X162765892Y-78800500D01*
X162893186Y-78766392D01*
X162949103Y-78734108D01*
X167199500Y-78734108D01*
X167199500Y-78865891D01*
X167216554Y-78929539D01*
X167233608Y-78993188D01*
X167266554Y-79050250D01*
X167299500Y-79107314D01*
X167392686Y-79200500D01*
X167506814Y-79266392D01*
X167634108Y-79300500D01*
X167634110Y-79300500D01*
X167765890Y-79300500D01*
X167765892Y-79300500D01*
X167893186Y-79266392D01*
X168007314Y-79200500D01*
X168100500Y-79107314D01*
X168166392Y-78993186D01*
X168200500Y-78865892D01*
X168200500Y-78734108D01*
X168166392Y-78606814D01*
X168166387Y-78606806D01*
X168157563Y-78591521D01*
X168100500Y-78492686D01*
X168007314Y-78399500D01*
X167949100Y-78365890D01*
X167893187Y-78333608D01*
X167829539Y-78316554D01*
X167765892Y-78299500D01*
X167765891Y-78299500D01*
X167634108Y-78299500D01*
X167506808Y-78333609D01*
X167506806Y-78333610D01*
X167392696Y-78399493D01*
X167392682Y-78399502D01*
X167392677Y-78399506D01*
X167299506Y-78492677D01*
X167299502Y-78492682D01*
X167299493Y-78492696D01*
X167233610Y-78606806D01*
X167233609Y-78606808D01*
X167233474Y-78607313D01*
X167199500Y-78734108D01*
X162949103Y-78734108D01*
X163007314Y-78700500D01*
X163100500Y-78607314D01*
X163166392Y-78493186D01*
X163200500Y-78365892D01*
X163200500Y-78234108D01*
X163166392Y-78106814D01*
X163166387Y-78106806D01*
X163157563Y-78091521D01*
X163100500Y-77992686D01*
X163007314Y-77899500D01*
X162949100Y-77865890D01*
X162893187Y-77833608D01*
X162829539Y-77816554D01*
X162765892Y-77799500D01*
X162765891Y-77799500D01*
X162634108Y-77799500D01*
X162506808Y-77833609D01*
X162506806Y-77833610D01*
X162392696Y-77899493D01*
X162392682Y-77899502D01*
X162392677Y-77899506D01*
X162299506Y-77992677D01*
X162299502Y-77992682D01*
X162299493Y-77992696D01*
X162233610Y-78106806D01*
X162233609Y-78106808D01*
X162233608Y-78106812D01*
X162199500Y-78234108D01*
X151949103Y-78234108D01*
X152007314Y-78200500D01*
X152100500Y-78107314D01*
X152166392Y-77993186D01*
X152200500Y-77865892D01*
X152200500Y-77734108D01*
X152166392Y-77606814D01*
X152166387Y-77606806D01*
X152157563Y-77591521D01*
X152100500Y-77492686D01*
X152007314Y-77399500D01*
X151949104Y-77365892D01*
X151949104Y-77365891D01*
X151949101Y-77365891D01*
X151893187Y-77333608D01*
X151829539Y-77316554D01*
X151765892Y-77299500D01*
X151765891Y-77299500D01*
X151634108Y-77299500D01*
X151506808Y-77333609D01*
X151506806Y-77333610D01*
X151392696Y-77399493D01*
X151392682Y-77399502D01*
X151392677Y-77399506D01*
X151299506Y-77492677D01*
X151299502Y-77492682D01*
X151299493Y-77492696D01*
X151233610Y-77606806D01*
X151233609Y-77606808D01*
X151233608Y-77606812D01*
X151199500Y-77734108D01*
X143381226Y-77734108D01*
X143381181Y-77726742D01*
X143372021Y-76234108D01*
X154699500Y-76234108D01*
X154699500Y-76365891D01*
X154699500Y-76365892D01*
X154733609Y-76493189D01*
X154752906Y-76526612D01*
X154752907Y-76526613D01*
X154799500Y-76607314D01*
X154892686Y-76700500D01*
X155006814Y-76766392D01*
X155134108Y-76800500D01*
X155134110Y-76800500D01*
X155265890Y-76800500D01*
X155265892Y-76800500D01*
X155393186Y-76766392D01*
X155507314Y-76700500D01*
X155600500Y-76607314D01*
X155666392Y-76493186D01*
X155700500Y-76365892D01*
X155700500Y-76234108D01*
X155666392Y-76106814D01*
X155666387Y-76106806D01*
X155657563Y-76091521D01*
X155600500Y-75992686D01*
X155507314Y-75899500D01*
X155507312Y-75899499D01*
X155507310Y-75899497D01*
X155444462Y-75863212D01*
X155393188Y-75833608D01*
X155329539Y-75816554D01*
X155265892Y-75799500D01*
X155265891Y-75799500D01*
X155134108Y-75799500D01*
X155006808Y-75833609D01*
X155006806Y-75833610D01*
X154892696Y-75899493D01*
X154892682Y-75899502D01*
X154892677Y-75899506D01*
X154799506Y-75992677D01*
X154799502Y-75992682D01*
X154799493Y-75992696D01*
X154733610Y-76106806D01*
X154733609Y-76106808D01*
X154733608Y-76106812D01*
X154699500Y-76234108D01*
X143372021Y-76234108D01*
X143371976Y-76226742D01*
X143347474Y-72234108D01*
X152199500Y-72234108D01*
X152199500Y-72365891D01*
X152216554Y-72429539D01*
X152233608Y-72493188D01*
X152266554Y-72550250D01*
X152299500Y-72607314D01*
X152392686Y-72700500D01*
X152506814Y-72766392D01*
X152634108Y-72800500D01*
X152634110Y-72800500D01*
X152765890Y-72800500D01*
X152765892Y-72800500D01*
X152893186Y-72766392D01*
X153007314Y-72700500D01*
X153100500Y-72607314D01*
X153166392Y-72493186D01*
X153200500Y-72365892D01*
X153200500Y-72234108D01*
X156699500Y-72234108D01*
X156699500Y-72365891D01*
X156716554Y-72429539D01*
X156733608Y-72493188D01*
X156766554Y-72550250D01*
X156799500Y-72607314D01*
X156892686Y-72700500D01*
X157006814Y-72766392D01*
X157134108Y-72800500D01*
X157134110Y-72800500D01*
X157265890Y-72800500D01*
X157265892Y-72800500D01*
X157393186Y-72766392D01*
X157507314Y-72700500D01*
X157600500Y-72607314D01*
X157666392Y-72493186D01*
X157700500Y-72365892D01*
X157700500Y-72234108D01*
X157666392Y-72106814D01*
X157666387Y-72106806D01*
X157657563Y-72091521D01*
X157600500Y-71992686D01*
X157507314Y-71899500D01*
X157450250Y-71866554D01*
X157393187Y-71833608D01*
X157329539Y-71816554D01*
X157265892Y-71799500D01*
X157265891Y-71799500D01*
X157134108Y-71799500D01*
X157006808Y-71833609D01*
X157006806Y-71833610D01*
X156892696Y-71899493D01*
X156892682Y-71899502D01*
X156892677Y-71899506D01*
X156799506Y-71992677D01*
X156799502Y-71992682D01*
X156799493Y-71992696D01*
X156733610Y-72106806D01*
X156733609Y-72106808D01*
X156733608Y-72106812D01*
X156699500Y-72234108D01*
X153200500Y-72234108D01*
X153166392Y-72106814D01*
X153166387Y-72106806D01*
X153157563Y-72091521D01*
X153100500Y-71992686D01*
X153007314Y-71899500D01*
X152950250Y-71866554D01*
X152893187Y-71833608D01*
X152829539Y-71816554D01*
X152765892Y-71799500D01*
X152765891Y-71799500D01*
X152634108Y-71799500D01*
X152506808Y-71833609D01*
X152506806Y-71833610D01*
X152392696Y-71899493D01*
X152392682Y-71899502D01*
X152392677Y-71899506D01*
X152299506Y-71992677D01*
X152299502Y-71992682D01*
X152299493Y-71992696D01*
X152233610Y-72106806D01*
X152233609Y-72106808D01*
X152233608Y-72106812D01*
X152199500Y-72234108D01*
X143347474Y-72234108D01*
X143347429Y-72226742D01*
X143310653Y-66234108D01*
X162199500Y-66234108D01*
X162199500Y-66365891D01*
X162233608Y-66493187D01*
X162253877Y-66528293D01*
X162259310Y-66537703D01*
X162299497Y-66607310D01*
X162299499Y-66607313D01*
X162299500Y-66607314D01*
X162392686Y-66700500D01*
X162506814Y-66766392D01*
X162634108Y-66800500D01*
X162634110Y-66800500D01*
X162765890Y-66800500D01*
X162765892Y-66800500D01*
X162893186Y-66766392D01*
X163007314Y-66700500D01*
X163100500Y-66607314D01*
X163166392Y-66493186D01*
X163200500Y-66365892D01*
X163200500Y-66234108D01*
X163166392Y-66106814D01*
X163166387Y-66106806D01*
X163157563Y-66091521D01*
X163100500Y-65992686D01*
X163007314Y-65899500D01*
X162950250Y-65866554D01*
X162893187Y-65833608D01*
X162829539Y-65816554D01*
X162765892Y-65799500D01*
X162765891Y-65799500D01*
X162634108Y-65799500D01*
X162506808Y-65833609D01*
X162506806Y-65833610D01*
X162392696Y-65899493D01*
X162392682Y-65899502D01*
X162392677Y-65899506D01*
X162299506Y-65992677D01*
X162299502Y-65992682D01*
X162299493Y-65992696D01*
X162233610Y-66106806D01*
X162233609Y-66106808D01*
X162233608Y-66106812D01*
X162199500Y-66234108D01*
X143310653Y-66234108D01*
X143310608Y-66226742D01*
X143301855Y-64800499D01*
X143298379Y-64234108D01*
X154699500Y-64234108D01*
X154699500Y-64365891D01*
X154716554Y-64429539D01*
X154733608Y-64493188D01*
X154766554Y-64550250D01*
X154799500Y-64607314D01*
X154892686Y-64700500D01*
X155006814Y-64766392D01*
X155134108Y-64800500D01*
X155134110Y-64800500D01*
X155265890Y-64800500D01*
X155265892Y-64800500D01*
X155393186Y-64766392D01*
X155507314Y-64700500D01*
X155600500Y-64607314D01*
X155666392Y-64493186D01*
X155700500Y-64365892D01*
X155700500Y-64234108D01*
X155666392Y-64106814D01*
X155666387Y-64106806D01*
X155657563Y-64091521D01*
X155600500Y-63992686D01*
X155507314Y-63899500D01*
X155450250Y-63866554D01*
X155393187Y-63833608D01*
X155329539Y-63816554D01*
X155265892Y-63799500D01*
X155265891Y-63799500D01*
X155134108Y-63799500D01*
X155006808Y-63833609D01*
X155006806Y-63833610D01*
X154892696Y-63899493D01*
X154892682Y-63899502D01*
X154892677Y-63899506D01*
X154799506Y-63992677D01*
X154799502Y-63992682D01*
X154799493Y-63992696D01*
X154733610Y-64106806D01*
X154733609Y-64106808D01*
X154733608Y-64106812D01*
X154699500Y-64234108D01*
X143298379Y-64234108D01*
X143298334Y-64226742D01*
X143289372Y-62766391D01*
X143288396Y-62607310D01*
X143286106Y-62234108D01*
X145199500Y-62234108D01*
X145199500Y-62365891D01*
X145216554Y-62429539D01*
X145233608Y-62493188D01*
X145266554Y-62550250D01*
X145299500Y-62607314D01*
X145392686Y-62700500D01*
X145506814Y-62766392D01*
X145634108Y-62800500D01*
X145634110Y-62800500D01*
X145765890Y-62800500D01*
X145765892Y-62800500D01*
X145893186Y-62766392D01*
X146007314Y-62700500D01*
X146100500Y-62607314D01*
X146166392Y-62493186D01*
X146200500Y-62365892D01*
X146200500Y-62234108D01*
X146166392Y-62106814D01*
X146166387Y-62106806D01*
X146157563Y-62091521D01*
X146100500Y-61992686D01*
X146007314Y-61899500D01*
X145950250Y-61866554D01*
X145893187Y-61833608D01*
X145829539Y-61816554D01*
X145765892Y-61799500D01*
X145765891Y-61799500D01*
X145634108Y-61799500D01*
X145506808Y-61833609D01*
X145506806Y-61833610D01*
X145392696Y-61899493D01*
X145392682Y-61899502D01*
X145392677Y-61899506D01*
X145299506Y-61992677D01*
X145299502Y-61992682D01*
X145299493Y-61992696D01*
X145233610Y-62106806D01*
X145233609Y-62106808D01*
X145233608Y-62106812D01*
X145199500Y-62234108D01*
X143286106Y-62234108D01*
X143276901Y-60734108D01*
X145699500Y-60734108D01*
X145699500Y-60865891D01*
X145716554Y-60929539D01*
X145733608Y-60993188D01*
X145766554Y-61050250D01*
X145799500Y-61107314D01*
X145892686Y-61200500D01*
X146006814Y-61266392D01*
X146134108Y-61300500D01*
X146134110Y-61300500D01*
X146265890Y-61300500D01*
X146265892Y-61300500D01*
X146393186Y-61266392D01*
X146507314Y-61200500D01*
X146600500Y-61107314D01*
X146666392Y-60993186D01*
X146700500Y-60865892D01*
X146700500Y-60734108D01*
X150199500Y-60734108D01*
X150199500Y-60865891D01*
X150216554Y-60929539D01*
X150233608Y-60993188D01*
X150266554Y-61050250D01*
X150299500Y-61107314D01*
X150392686Y-61200500D01*
X150506814Y-61266392D01*
X150634108Y-61300500D01*
X150634110Y-61300500D01*
X150765890Y-61300500D01*
X150765892Y-61300500D01*
X150893186Y-61266392D01*
X151007314Y-61200500D01*
X151100500Y-61107314D01*
X151166392Y-60993186D01*
X151200500Y-60865892D01*
X151200500Y-60734108D01*
X151166392Y-60606814D01*
X151166387Y-60606806D01*
X151157563Y-60591521D01*
X151100500Y-60492686D01*
X151007314Y-60399500D01*
X150931228Y-60355572D01*
X150907318Y-60341767D01*
X150900791Y-60336758D01*
X150893187Y-60333608D01*
X150893186Y-60333608D01*
X150885579Y-60330457D01*
X150877418Y-60329383D01*
X150868741Y-60327058D01*
X150765892Y-60299500D01*
X150765891Y-60299500D01*
X150634108Y-60299500D01*
X150506808Y-60333609D01*
X150506806Y-60333610D01*
X150392696Y-60399493D01*
X150392682Y-60399502D01*
X150392677Y-60399506D01*
X150299506Y-60492677D01*
X150299502Y-60492682D01*
X150299493Y-60492696D01*
X150233610Y-60606806D01*
X150233609Y-60606808D01*
X150233474Y-60607313D01*
X150199500Y-60734108D01*
X146700500Y-60734108D01*
X146666392Y-60606814D01*
X146666387Y-60606806D01*
X146657563Y-60591521D01*
X146600500Y-60492686D01*
X146507314Y-60399500D01*
X146449100Y-60365890D01*
X146393187Y-60333608D01*
X146295226Y-60307360D01*
X146295226Y-60307359D01*
X146265893Y-60299500D01*
X146265892Y-60299500D01*
X146134108Y-60299500D01*
X146006808Y-60333609D01*
X146006806Y-60333610D01*
X145892696Y-60399493D01*
X145892682Y-60399502D01*
X145892677Y-60399506D01*
X145799506Y-60492677D01*
X145799502Y-60492682D01*
X145799493Y-60492696D01*
X145733610Y-60606806D01*
X145733609Y-60606808D01*
X145733474Y-60607313D01*
X145699500Y-60734108D01*
X143276901Y-60734108D01*
X143273833Y-60234108D01*
X152199500Y-60234108D01*
X152199500Y-60365891D01*
X152233608Y-60493187D01*
X152235069Y-60495716D01*
X152235074Y-60495736D01*
X152235079Y-60495734D01*
X152299500Y-60607314D01*
X152392686Y-60700500D01*
X152506814Y-60766392D01*
X152634108Y-60800500D01*
X152634110Y-60800500D01*
X152765890Y-60800500D01*
X152765892Y-60800500D01*
X152893186Y-60766392D01*
X153007314Y-60700500D01*
X153100500Y-60607314D01*
X153166392Y-60493186D01*
X153200500Y-60365892D01*
X153200500Y-60234108D01*
X156699500Y-60234108D01*
X156699500Y-60365891D01*
X156733608Y-60493187D01*
X156735069Y-60495716D01*
X156735074Y-60495736D01*
X156735079Y-60495734D01*
X156799500Y-60607314D01*
X156892686Y-60700500D01*
X157006814Y-60766392D01*
X157134108Y-60800500D01*
X157134110Y-60800500D01*
X157265890Y-60800500D01*
X157265892Y-60800500D01*
X157393186Y-60766392D01*
X157507314Y-60700500D01*
X157600500Y-60607314D01*
X157666392Y-60493186D01*
X157700500Y-60365892D01*
X157700500Y-60234108D01*
X157666392Y-60106814D01*
X157663816Y-60102353D01*
X157663815Y-60102351D01*
X157663810Y-60102341D01*
X157657565Y-60091524D01*
X157657565Y-60091525D01*
X157657563Y-60091521D01*
X157600500Y-59992686D01*
X157507314Y-59899500D01*
X157450250Y-59866554D01*
X157393187Y-59833608D01*
X157329539Y-59816554D01*
X157265892Y-59799500D01*
X157265891Y-59799500D01*
X157134108Y-59799500D01*
X157006808Y-59833609D01*
X157006806Y-59833610D01*
X156892696Y-59899493D01*
X156892682Y-59899502D01*
X156892677Y-59899506D01*
X156799506Y-59992677D01*
X156799502Y-59992682D01*
X156799493Y-59992696D01*
X156733610Y-60106806D01*
X156733609Y-60106808D01*
X156707825Y-60203037D01*
X156699500Y-60234108D01*
X153200500Y-60234108D01*
X153166392Y-60106814D01*
X153163816Y-60102353D01*
X153157563Y-60091521D01*
X153100500Y-59992686D01*
X153007314Y-59899500D01*
X152950250Y-59866554D01*
X152893187Y-59833608D01*
X152829539Y-59816554D01*
X152765892Y-59799500D01*
X152765891Y-59799500D01*
X152634108Y-59799500D01*
X152506808Y-59833609D01*
X152506806Y-59833610D01*
X152392696Y-59899493D01*
X152392682Y-59899502D01*
X152392677Y-59899506D01*
X152299506Y-59992677D01*
X152299502Y-59992682D01*
X152299493Y-59992696D01*
X152233610Y-60106806D01*
X152233609Y-60106808D01*
X152207825Y-60203037D01*
X152199500Y-60234108D01*
X143273833Y-60234108D01*
X143261559Y-58234108D01*
X170699500Y-58234108D01*
X170699500Y-58365891D01*
X170733608Y-58493187D01*
X170741303Y-58506514D01*
X170799500Y-58607314D01*
X170892686Y-58700500D01*
X171006814Y-58766392D01*
X171134108Y-58800500D01*
X171134110Y-58800500D01*
X171265890Y-58800500D01*
X171265892Y-58800500D01*
X171393186Y-58766392D01*
X171507314Y-58700500D01*
X171600500Y-58607314D01*
X171620090Y-58573383D01*
X179086500Y-58573383D01*
X179086500Y-58573389D01*
X179086500Y-58746611D01*
X179113598Y-58917701D01*
X179167127Y-59082445D01*
X179245768Y-59236788D01*
X179347586Y-59376928D01*
X179470072Y-59499414D01*
X179610212Y-59601232D01*
X179764555Y-59679873D01*
X179929299Y-59733402D01*
X180100389Y-59760500D01*
X180100390Y-59760500D01*
X180273610Y-59760500D01*
X180273611Y-59760500D01*
X180444701Y-59733402D01*
X180609445Y-59679873D01*
X180763788Y-59601232D01*
X180903928Y-59499414D01*
X181026414Y-59376928D01*
X181128232Y-59236788D01*
X181206873Y-59082445D01*
X181260402Y-58917701D01*
X181287500Y-58746611D01*
X181287500Y-58573389D01*
X181287499Y-58573383D01*
X196612500Y-58573383D01*
X196612500Y-58573389D01*
X196612500Y-58746611D01*
X196639598Y-58917701D01*
X196693127Y-59082445D01*
X196771768Y-59236788D01*
X196873586Y-59376928D01*
X196996072Y-59499414D01*
X197136212Y-59601232D01*
X197290555Y-59679873D01*
X197455299Y-59733402D01*
X197626389Y-59760500D01*
X197626390Y-59760500D01*
X197799610Y-59760500D01*
X197799611Y-59760500D01*
X197970701Y-59733402D01*
X198135445Y-59679873D01*
X198289788Y-59601232D01*
X198429928Y-59499414D01*
X198552414Y-59376928D01*
X198654232Y-59236788D01*
X198732873Y-59082445D01*
X198786402Y-58917701D01*
X198813500Y-58746611D01*
X198813500Y-58573389D01*
X198786402Y-58402299D01*
X198732873Y-58237555D01*
X198654232Y-58083212D01*
X198552414Y-57943072D01*
X198429928Y-57820586D01*
X198289788Y-57718768D01*
X198135449Y-57640128D01*
X197984215Y-57590988D01*
X197984203Y-57590985D01*
X197970701Y-57586598D01*
X197970699Y-57586597D01*
X197970698Y-57586597D01*
X197956312Y-57584318D01*
X197956306Y-57584317D01*
X197866188Y-57570044D01*
X197839271Y-57565781D01*
X197823407Y-57563268D01*
X197799614Y-57559500D01*
X197799611Y-57559500D01*
X197626389Y-57559500D01*
X197626388Y-57559500D01*
X197586726Y-57565781D01*
X197586725Y-57565780D01*
X197455304Y-57586596D01*
X197290549Y-57640129D01*
X197136210Y-57718768D01*
X197056256Y-57776859D01*
X197056255Y-57776859D01*
X197007941Y-57811961D01*
X197000564Y-57816092D01*
X196869094Y-57947562D01*
X196864962Y-57954941D01*
X196846675Y-57980110D01*
X196837546Y-57992677D01*
X196837542Y-57992682D01*
X196837541Y-57992683D01*
X196771768Y-58083210D01*
X196693129Y-58237549D01*
X196639596Y-58402305D01*
X196612500Y-58573383D01*
X181287499Y-58573383D01*
X181260402Y-58402299D01*
X181206873Y-58237555D01*
X181128232Y-58083212D01*
X181026414Y-57943072D01*
X180903928Y-57820586D01*
X180763788Y-57718768D01*
X180609449Y-57640128D01*
X180458215Y-57590988D01*
X180458203Y-57590985D01*
X180444701Y-57586598D01*
X180444699Y-57586597D01*
X180444698Y-57586597D01*
X180430312Y-57584318D01*
X180430306Y-57584317D01*
X180340188Y-57570044D01*
X180313271Y-57565781D01*
X180297407Y-57563268D01*
X180273614Y-57559500D01*
X180273611Y-57559500D01*
X180100389Y-57559500D01*
X180100388Y-57559500D01*
X180060726Y-57565781D01*
X180060725Y-57565780D01*
X179929304Y-57586596D01*
X179764549Y-57640129D01*
X179610210Y-57718768D01*
X179530256Y-57776859D01*
X179530255Y-57776859D01*
X179481941Y-57811961D01*
X179474564Y-57816092D01*
X179343094Y-57947562D01*
X179338962Y-57954941D01*
X179320675Y-57980110D01*
X179311546Y-57992677D01*
X179311542Y-57992682D01*
X179311541Y-57992683D01*
X179245768Y-58083210D01*
X179167129Y-58237549D01*
X179113596Y-58402305D01*
X179086500Y-58573383D01*
X171620090Y-58573383D01*
X171666392Y-58493186D01*
X171700500Y-58365892D01*
X171700500Y-58234108D01*
X171666392Y-58106814D01*
X171666387Y-58106806D01*
X171652764Y-58083210D01*
X171600500Y-57992686D01*
X171507314Y-57899500D01*
X171450250Y-57866554D01*
X171393187Y-57833608D01*
X171329539Y-57816554D01*
X171265892Y-57799500D01*
X171265891Y-57799500D01*
X171134108Y-57799500D01*
X171006808Y-57833609D01*
X171006806Y-57833610D01*
X170892696Y-57899493D01*
X170892682Y-57899502D01*
X170892677Y-57899506D01*
X170799506Y-57992677D01*
X170799502Y-57992682D01*
X170799493Y-57992696D01*
X170733610Y-58106806D01*
X170733609Y-58106808D01*
X170733608Y-58106812D01*
X170699500Y-58234108D01*
X143261559Y-58234108D01*
X143249285Y-56234108D01*
X146699500Y-56234108D01*
X146699500Y-56365891D01*
X146733608Y-56493187D01*
X146762047Y-56542444D01*
X146762048Y-56542446D01*
X146799495Y-56607307D01*
X146799499Y-56607312D01*
X146799500Y-56607314D01*
X146892686Y-56700500D01*
X147006814Y-56766392D01*
X147134108Y-56800500D01*
X147134110Y-56800500D01*
X147265890Y-56800500D01*
X147265892Y-56800500D01*
X147393186Y-56766392D01*
X147507314Y-56700500D01*
X147600500Y-56607314D01*
X147666392Y-56493186D01*
X147700500Y-56365892D01*
X147700500Y-56234108D01*
X147693133Y-56206615D01*
X179086499Y-56206615D01*
X179111726Y-56365887D01*
X179113597Y-56377698D01*
X179113598Y-56377701D01*
X179167127Y-56542445D01*
X179245768Y-56696788D01*
X179347586Y-56836928D01*
X179470072Y-56959414D01*
X179610212Y-57061232D01*
X179764555Y-57139873D01*
X179929299Y-57193402D01*
X180100389Y-57220500D01*
X180100390Y-57220500D01*
X180273610Y-57220500D01*
X180273611Y-57220500D01*
X180444701Y-57193402D01*
X180609445Y-57139873D01*
X180763788Y-57061232D01*
X180903928Y-56959414D01*
X181026414Y-56836928D01*
X181128232Y-56696788D01*
X181206873Y-56542445D01*
X181260402Y-56377701D01*
X181287499Y-56206615D01*
X196612499Y-56206615D01*
X196637726Y-56365887D01*
X196639597Y-56377698D01*
X196639598Y-56377701D01*
X196693127Y-56542445D01*
X196771768Y-56696788D01*
X196873586Y-56836928D01*
X196996072Y-56959414D01*
X197136212Y-57061232D01*
X197290555Y-57139873D01*
X197455299Y-57193402D01*
X197626389Y-57220500D01*
X197626390Y-57220500D01*
X197799610Y-57220500D01*
X197799611Y-57220500D01*
X197970701Y-57193402D01*
X198135445Y-57139873D01*
X198289788Y-57061232D01*
X198429928Y-56959414D01*
X198552414Y-56836928D01*
X198654232Y-56696788D01*
X198732873Y-56542445D01*
X198786402Y-56377701D01*
X198813500Y-56206611D01*
X198813500Y-56033389D01*
X198786402Y-55862299D01*
X198744750Y-55734108D01*
X204199500Y-55734108D01*
X204199500Y-55865891D01*
X204208505Y-55899498D01*
X204233608Y-55993188D01*
X204256816Y-56033383D01*
X204256819Y-56033389D01*
X204299500Y-56107314D01*
X204392686Y-56200500D01*
X204506814Y-56266392D01*
X204634108Y-56300500D01*
X204634110Y-56300500D01*
X204765890Y-56300500D01*
X204765892Y-56300500D01*
X204893186Y-56266392D01*
X205007314Y-56200500D01*
X205100500Y-56107314D01*
X205166392Y-55993186D01*
X205200500Y-55865892D01*
X205200500Y-55734108D01*
X205166392Y-55606814D01*
X205166387Y-55606806D01*
X205129671Y-55543212D01*
X205100500Y-55492686D01*
X205007314Y-55399500D01*
X204949100Y-55365890D01*
X204893187Y-55333608D01*
X204829539Y-55316554D01*
X204765892Y-55299500D01*
X204765891Y-55299500D01*
X204634108Y-55299500D01*
X204506808Y-55333609D01*
X204506806Y-55333610D01*
X204392696Y-55399493D01*
X204392682Y-55399502D01*
X204392677Y-55399506D01*
X204299506Y-55492677D01*
X204299502Y-55492682D01*
X204299493Y-55492696D01*
X204233610Y-55606806D01*
X204233609Y-55606808D01*
X204233474Y-55607313D01*
X204199500Y-55734108D01*
X198744750Y-55734108D01*
X198732873Y-55697555D01*
X198654232Y-55543212D01*
X198552414Y-55403072D01*
X198429928Y-55280586D01*
X198289788Y-55178768D01*
X198135449Y-55100128D01*
X197984215Y-55050988D01*
X197984203Y-55050985D01*
X197970701Y-55046598D01*
X197970699Y-55046597D01*
X197970698Y-55046597D01*
X197956312Y-55044318D01*
X197956306Y-55044317D01*
X197866188Y-55030044D01*
X197839271Y-55025781D01*
X197823407Y-55023268D01*
X197799614Y-55019500D01*
X197799611Y-55019500D01*
X197626389Y-55019500D01*
X197626388Y-55019500D01*
X197586726Y-55025781D01*
X197586725Y-55025780D01*
X197455304Y-55046596D01*
X197290549Y-55100129D01*
X197136210Y-55178768D01*
X197056256Y-55236859D01*
X197056255Y-55236859D01*
X197007941Y-55271961D01*
X197000564Y-55276092D01*
X196869092Y-55407564D01*
X196864961Y-55414941D01*
X196829859Y-55463255D01*
X196829859Y-55463256D01*
X196771768Y-55543210D01*
X196693129Y-55697549D01*
X196693128Y-55697551D01*
X196693128Y-55697552D01*
X196681250Y-55734110D01*
X196639598Y-55862299D01*
X196639596Y-55862305D01*
X196612500Y-56033383D01*
X196612500Y-56206615D01*
X196612499Y-56206615D01*
X181287499Y-56206615D01*
X181287500Y-56206611D01*
X181287500Y-56033389D01*
X181260402Y-55862299D01*
X181206873Y-55697555D01*
X181128232Y-55543212D01*
X181026414Y-55403072D01*
X180903928Y-55280586D01*
X180763788Y-55178768D01*
X180609449Y-55100128D01*
X180458215Y-55050988D01*
X180458203Y-55050985D01*
X180444701Y-55046598D01*
X180444699Y-55046597D01*
X180444698Y-55046597D01*
X180430312Y-55044318D01*
X180430306Y-55044317D01*
X180340188Y-55030044D01*
X180313271Y-55025781D01*
X180297407Y-55023268D01*
X180273614Y-55019500D01*
X180273611Y-55019500D01*
X180100389Y-55019500D01*
X180100388Y-55019500D01*
X180060726Y-55025781D01*
X180060725Y-55025780D01*
X179929304Y-55046596D01*
X179764549Y-55100129D01*
X179610210Y-55178768D01*
X179530256Y-55236859D01*
X179530255Y-55236859D01*
X179481941Y-55271961D01*
X179474564Y-55276092D01*
X179343092Y-55407564D01*
X179338961Y-55414941D01*
X179303859Y-55463255D01*
X179303859Y-55463256D01*
X179245768Y-55543210D01*
X179167129Y-55697549D01*
X179167128Y-55697551D01*
X179167128Y-55697552D01*
X179155250Y-55734110D01*
X179113598Y-55862299D01*
X179113596Y-55862305D01*
X179086500Y-56033383D01*
X179086500Y-56206615D01*
X179086499Y-56206615D01*
X147693133Y-56206615D01*
X147666392Y-56106814D01*
X147666391Y-56106812D01*
X147666391Y-56106811D01*
X147656984Y-56090519D01*
X147656983Y-56090517D01*
X147600789Y-55993187D01*
X147600500Y-55992686D01*
X147507314Y-55899500D01*
X147442880Y-55862299D01*
X147393187Y-55833608D01*
X147329539Y-55816554D01*
X147265892Y-55799500D01*
X147265891Y-55799500D01*
X147134108Y-55799500D01*
X147006808Y-55833609D01*
X147006806Y-55833610D01*
X146892696Y-55899493D01*
X146892682Y-55899502D01*
X146892677Y-55899506D01*
X146799506Y-55992677D01*
X146799502Y-55992682D01*
X146799493Y-55992696D01*
X146733610Y-56106806D01*
X146733609Y-56106808D01*
X146733474Y-56107313D01*
X146699500Y-56234108D01*
X143249285Y-56234108D01*
X143243148Y-55234106D01*
X169199500Y-55234106D01*
X169199500Y-55234108D01*
X169199500Y-55365892D01*
X169206141Y-55390677D01*
X169209462Y-55403071D01*
X169225588Y-55463255D01*
X169233608Y-55493187D01*
X169262490Y-55543211D01*
X169299500Y-55607314D01*
X169392686Y-55700500D01*
X169491521Y-55757563D01*
X169503190Y-55764300D01*
X169506814Y-55766392D01*
X169634108Y-55800500D01*
X169634110Y-55800500D01*
X169765890Y-55800500D01*
X169765892Y-55800500D01*
X169893186Y-55766392D01*
X170007314Y-55700500D01*
X170100500Y-55607314D01*
X170166392Y-55493186D01*
X170200500Y-55365892D01*
X170200500Y-55234108D01*
X170166392Y-55106814D01*
X170166387Y-55106806D01*
X170157563Y-55091521D01*
X170100500Y-54992686D01*
X170007314Y-54899500D01*
X169950250Y-54866554D01*
X169893187Y-54833608D01*
X169829539Y-54816554D01*
X169765892Y-54799500D01*
X169765891Y-54799500D01*
X169634108Y-54799500D01*
X169506808Y-54833609D01*
X169506806Y-54833610D01*
X169392696Y-54899493D01*
X169392682Y-54899502D01*
X169392677Y-54899506D01*
X169299506Y-54992677D01*
X169299502Y-54992682D01*
X169299493Y-54992696D01*
X169233610Y-55106806D01*
X169233609Y-55106809D01*
X169233608Y-55106811D01*
X169233608Y-55106812D01*
X169214328Y-55178768D01*
X169199500Y-55234106D01*
X143243148Y-55234106D01*
X143233943Y-53734108D01*
X151199500Y-53734108D01*
X151199500Y-53865891D01*
X151208505Y-53899498D01*
X151233608Y-53993188D01*
X151266554Y-54050250D01*
X151299500Y-54107314D01*
X151392686Y-54200500D01*
X151506814Y-54266392D01*
X151634108Y-54300500D01*
X151634110Y-54300500D01*
X151765890Y-54300500D01*
X151765892Y-54300500D01*
X151893186Y-54266392D01*
X151949103Y-54234108D01*
X162199500Y-54234108D01*
X162199500Y-54365891D01*
X162233608Y-54493187D01*
X162249800Y-54521231D01*
X162299500Y-54607314D01*
X162392686Y-54700500D01*
X162506814Y-54766392D01*
X162634108Y-54800500D01*
X162634110Y-54800500D01*
X162765890Y-54800500D01*
X162765892Y-54800500D01*
X162893186Y-54766392D01*
X163007314Y-54700500D01*
X163100500Y-54607314D01*
X163166392Y-54493186D01*
X163200500Y-54365892D01*
X163200500Y-54234108D01*
X163166392Y-54106814D01*
X163166387Y-54106806D01*
X163157563Y-54091521D01*
X163100500Y-53992686D01*
X163007314Y-53899500D01*
X162949100Y-53865890D01*
X162893187Y-53833608D01*
X162829539Y-53816554D01*
X162765892Y-53799500D01*
X162765891Y-53799500D01*
X162634108Y-53799500D01*
X162506808Y-53833609D01*
X162506806Y-53833610D01*
X162392696Y-53899493D01*
X162392682Y-53899502D01*
X162392677Y-53899506D01*
X162299506Y-53992677D01*
X162299502Y-53992682D01*
X162299493Y-53992696D01*
X162233610Y-54106806D01*
X162233609Y-54106808D01*
X162233474Y-54107313D01*
X162199500Y-54234108D01*
X151949103Y-54234108D01*
X152007314Y-54200500D01*
X152100500Y-54107314D01*
X152166392Y-53993186D01*
X152200500Y-53865892D01*
X152200500Y-53734108D01*
X152166392Y-53606814D01*
X152166387Y-53606806D01*
X152157563Y-53591521D01*
X152100500Y-53492686D01*
X152007314Y-53399500D01*
X151931228Y-53355572D01*
X151893188Y-53333609D01*
X151893187Y-53333608D01*
X151893186Y-53333608D01*
X151765892Y-53299500D01*
X151765891Y-53299500D01*
X151634108Y-53299500D01*
X151506808Y-53333609D01*
X151506806Y-53333610D01*
X151392696Y-53399493D01*
X151392682Y-53399502D01*
X151392677Y-53399506D01*
X151299506Y-53492677D01*
X151299502Y-53492682D01*
X151299493Y-53492696D01*
X151233610Y-53606806D01*
X151233609Y-53606808D01*
X151233474Y-53607313D01*
X151199500Y-53734108D01*
X143233943Y-53734108D01*
X143230875Y-53234108D01*
X167699500Y-53234108D01*
X167699500Y-53365891D01*
X167708505Y-53399498D01*
X167733608Y-53493188D01*
X167733725Y-53493389D01*
X167799500Y-53607314D01*
X167892686Y-53700500D01*
X168006814Y-53766392D01*
X168134108Y-53800500D01*
X168134110Y-53800500D01*
X168265890Y-53800500D01*
X168265892Y-53800500D01*
X168393186Y-53766392D01*
X168507314Y-53700500D01*
X168600500Y-53607314D01*
X168666275Y-53493389D01*
X179086500Y-53493389D01*
X179086500Y-53666611D01*
X179094677Y-53718239D01*
X179110248Y-53816554D01*
X179112947Y-53833596D01*
X179113597Y-53837700D01*
X179167128Y-54002449D01*
X179220301Y-54106806D01*
X179245768Y-54156788D01*
X179347586Y-54296928D01*
X179470072Y-54419414D01*
X179610212Y-54521232D01*
X179764555Y-54599873D01*
X179929299Y-54653402D01*
X180100389Y-54680500D01*
X180100390Y-54680500D01*
X180273610Y-54680500D01*
X180273611Y-54680500D01*
X180444701Y-54653402D01*
X180609445Y-54599873D01*
X180763788Y-54521232D01*
X180903928Y-54419414D01*
X181026414Y-54296928D01*
X181128232Y-54156788D01*
X181206873Y-54002445D01*
X181260402Y-53837701D01*
X181287500Y-53666611D01*
X181287500Y-53493389D01*
X196612500Y-53493389D01*
X196612500Y-53666611D01*
X196620677Y-53718239D01*
X196636248Y-53816554D01*
X196638947Y-53833596D01*
X196639597Y-53837700D01*
X196693128Y-54002449D01*
X196746301Y-54106806D01*
X196771768Y-54156788D01*
X196873586Y-54296928D01*
X196996072Y-54419414D01*
X197136212Y-54521232D01*
X197290555Y-54599873D01*
X197455299Y-54653402D01*
X197626389Y-54680500D01*
X197626390Y-54680500D01*
X197799610Y-54680500D01*
X197799611Y-54680500D01*
X197970701Y-54653402D01*
X198135445Y-54599873D01*
X198289788Y-54521232D01*
X198429928Y-54419414D01*
X198552414Y-54296928D01*
X198654232Y-54156788D01*
X198732873Y-54002445D01*
X198786402Y-53837701D01*
X198813500Y-53666611D01*
X198813500Y-53493389D01*
X198786402Y-53322299D01*
X198732873Y-53157555D01*
X198654232Y-53003212D01*
X198552414Y-52863072D01*
X198429928Y-52740586D01*
X198289788Y-52638768D01*
X198135449Y-52560128D01*
X197984215Y-52510988D01*
X197984203Y-52510985D01*
X197970701Y-52506598D01*
X197970699Y-52506597D01*
X197970698Y-52506597D01*
X197956312Y-52504318D01*
X197956306Y-52504317D01*
X197866188Y-52490044D01*
X197839271Y-52485781D01*
X197823407Y-52483268D01*
X197799614Y-52479500D01*
X197799611Y-52479500D01*
X197626389Y-52479500D01*
X197626388Y-52479500D01*
X197586726Y-52485781D01*
X197586725Y-52485780D01*
X197455304Y-52506596D01*
X197290549Y-52560129D01*
X197136210Y-52638768D01*
X197056256Y-52696859D01*
X197056255Y-52696859D01*
X197007941Y-52731961D01*
X197000564Y-52736092D01*
X196869093Y-52867563D01*
X196864961Y-52874942D01*
X196847118Y-52899501D01*
X196847118Y-52899502D01*
X196771768Y-53003210D01*
X196693129Y-53157547D01*
X196639596Y-53322301D01*
X196627458Y-53398942D01*
X196627443Y-53399039D01*
X196627370Y-53399502D01*
X196612500Y-53493389D01*
X181287500Y-53493389D01*
X181260402Y-53322299D01*
X181206873Y-53157555D01*
X181128232Y-53003212D01*
X181026414Y-52863072D01*
X180903928Y-52740586D01*
X180763788Y-52638768D01*
X180609449Y-52560128D01*
X180458215Y-52510988D01*
X180458203Y-52510985D01*
X180444701Y-52506598D01*
X180444699Y-52506597D01*
X180444698Y-52506597D01*
X180430312Y-52504318D01*
X180430306Y-52504317D01*
X180340188Y-52490044D01*
X180313271Y-52485781D01*
X180297407Y-52483268D01*
X180273614Y-52479500D01*
X180273611Y-52479500D01*
X180100389Y-52479500D01*
X180100388Y-52479500D01*
X180060726Y-52485781D01*
X180060725Y-52485780D01*
X179929304Y-52506596D01*
X179764549Y-52560129D01*
X179610210Y-52638768D01*
X179530256Y-52696859D01*
X179530255Y-52696859D01*
X179481941Y-52731961D01*
X179474564Y-52736092D01*
X179343093Y-52867563D01*
X179338961Y-52874942D01*
X179321118Y-52899501D01*
X179321118Y-52899502D01*
X179245768Y-53003210D01*
X179167129Y-53157547D01*
X179113596Y-53322301D01*
X179101458Y-53398942D01*
X179101443Y-53399039D01*
X179101370Y-53399502D01*
X179086500Y-53493389D01*
X168666275Y-53493389D01*
X168666392Y-53493186D01*
X168700500Y-53365892D01*
X168700500Y-53234108D01*
X168666392Y-53106814D01*
X168666387Y-53106806D01*
X168657563Y-53091521D01*
X168600500Y-52992686D01*
X168507314Y-52899500D01*
X168444214Y-52863069D01*
X168393187Y-52833608D01*
X168329539Y-52816554D01*
X168265892Y-52799500D01*
X168265891Y-52799500D01*
X168134108Y-52799500D01*
X168006808Y-52833609D01*
X168006806Y-52833610D01*
X167892696Y-52899493D01*
X167892682Y-52899502D01*
X167892677Y-52899506D01*
X167799506Y-52992677D01*
X167799502Y-52992682D01*
X167799493Y-52992696D01*
X167733610Y-53106806D01*
X167733609Y-53106808D01*
X167733608Y-53106812D01*
X167699500Y-53234108D01*
X143230875Y-53234108D01*
X143224738Y-52234108D01*
X154699500Y-52234108D01*
X154699500Y-52365891D01*
X154716554Y-52429539D01*
X154733608Y-52493188D01*
X154741350Y-52506597D01*
X154741351Y-52506598D01*
X154799497Y-52607310D01*
X154799499Y-52607312D01*
X154799500Y-52607314D01*
X154892686Y-52700500D01*
X155006814Y-52766392D01*
X155134108Y-52800500D01*
X155134110Y-52800500D01*
X155265890Y-52800500D01*
X155265892Y-52800500D01*
X155393186Y-52766392D01*
X155507314Y-52700500D01*
X155600500Y-52607314D01*
X155666392Y-52493186D01*
X155700500Y-52365892D01*
X155700500Y-52234108D01*
X155666392Y-52106814D01*
X155666387Y-52106806D01*
X155657563Y-52091521D01*
X155600500Y-51992686D01*
X155507314Y-51899500D01*
X155450250Y-51866554D01*
X155393187Y-51833608D01*
X155329539Y-51816554D01*
X155265892Y-51799500D01*
X155265891Y-51799500D01*
X155134108Y-51799500D01*
X155006808Y-51833609D01*
X155006806Y-51833610D01*
X154892696Y-51899493D01*
X154892682Y-51899502D01*
X154892677Y-51899506D01*
X154799506Y-51992677D01*
X154799502Y-51992682D01*
X154799493Y-51992696D01*
X154733610Y-52106806D01*
X154733609Y-52106808D01*
X154733608Y-52106812D01*
X154699500Y-52234108D01*
X143224738Y-52234108D01*
X143216878Y-50953383D01*
X179086500Y-50953383D01*
X179086500Y-50953389D01*
X179086500Y-51126611D01*
X179113598Y-51297701D01*
X179167127Y-51462445D01*
X179245768Y-51616788D01*
X179347586Y-51756928D01*
X179470072Y-51879414D01*
X179610212Y-51981232D01*
X179764555Y-52059873D01*
X179929299Y-52113402D01*
X180100389Y-52140500D01*
X180100390Y-52140500D01*
X180273610Y-52140500D01*
X180273611Y-52140500D01*
X180444701Y-52113402D01*
X180609445Y-52059873D01*
X180763788Y-51981232D01*
X180903928Y-51879414D01*
X181026414Y-51756928D01*
X181128232Y-51616788D01*
X181206873Y-51462445D01*
X181260402Y-51297701D01*
X181287500Y-51126611D01*
X181287500Y-50953389D01*
X181287499Y-50953383D01*
X196612500Y-50953383D01*
X196612500Y-50953389D01*
X196612500Y-51126611D01*
X196639598Y-51297701D01*
X196693127Y-51462445D01*
X196771768Y-51616788D01*
X196873586Y-51756928D01*
X196996072Y-51879414D01*
X197136212Y-51981232D01*
X197290555Y-52059873D01*
X197455299Y-52113402D01*
X197626389Y-52140500D01*
X197626390Y-52140500D01*
X197799610Y-52140500D01*
X197799611Y-52140500D01*
X197970701Y-52113402D01*
X198135445Y-52059873D01*
X198289788Y-51981232D01*
X198429928Y-51879414D01*
X198552414Y-51756928D01*
X198654232Y-51616788D01*
X198732873Y-51462445D01*
X198786402Y-51297701D01*
X198813500Y-51126611D01*
X198813500Y-50953389D01*
X198786402Y-50782299D01*
X198732873Y-50617555D01*
X198654232Y-50463212D01*
X198552414Y-50323072D01*
X198429928Y-50200586D01*
X198289788Y-50098768D01*
X198135449Y-50020128D01*
X197984215Y-49970988D01*
X197984203Y-49970985D01*
X197970701Y-49966598D01*
X197970699Y-49966597D01*
X197970698Y-49966597D01*
X197956312Y-49964318D01*
X197956306Y-49964317D01*
X197866188Y-49950044D01*
X197839271Y-49945781D01*
X197823407Y-49943268D01*
X197799614Y-49939500D01*
X197799611Y-49939500D01*
X197626389Y-49939500D01*
X197626388Y-49939500D01*
X197586726Y-49945781D01*
X197586725Y-49945780D01*
X197455304Y-49966596D01*
X197290549Y-50020129D01*
X197136210Y-50098768D01*
X197056256Y-50156859D01*
X197056255Y-50156859D01*
X197007941Y-50191961D01*
X197000564Y-50196092D01*
X196869092Y-50327564D01*
X196864961Y-50334941D01*
X196829859Y-50383255D01*
X196829859Y-50383256D01*
X196771768Y-50463210D01*
X196693129Y-50617549D01*
X196639596Y-50782305D01*
X196612500Y-50953383D01*
X181287499Y-50953383D01*
X181260402Y-50782299D01*
X181206873Y-50617555D01*
X181128232Y-50463212D01*
X181026414Y-50323072D01*
X180903928Y-50200586D01*
X180763788Y-50098768D01*
X180609449Y-50020128D01*
X180458215Y-49970988D01*
X180458203Y-49970985D01*
X180444701Y-49966598D01*
X180444699Y-49966597D01*
X180444698Y-49966597D01*
X180430312Y-49964318D01*
X180430306Y-49964317D01*
X180340188Y-49950044D01*
X180313271Y-49945781D01*
X180297407Y-49943268D01*
X180273614Y-49939500D01*
X180273611Y-49939500D01*
X180100389Y-49939500D01*
X180100388Y-49939500D01*
X180060726Y-49945781D01*
X180060725Y-49945780D01*
X179929304Y-49966596D01*
X179764549Y-50020129D01*
X179610210Y-50098768D01*
X179530256Y-50156859D01*
X179530255Y-50156859D01*
X179481941Y-50191961D01*
X179474564Y-50196092D01*
X179343092Y-50327564D01*
X179338961Y-50334941D01*
X179303859Y-50383255D01*
X179303859Y-50383256D01*
X179245768Y-50463210D01*
X179167129Y-50617549D01*
X179113596Y-50782305D01*
X179086500Y-50953383D01*
X143216878Y-50953383D01*
X143200190Y-48234108D01*
X152199500Y-48234108D01*
X152199500Y-48365891D01*
X152216554Y-48429539D01*
X152233608Y-48493188D01*
X152266554Y-48550250D01*
X152299500Y-48607314D01*
X152392686Y-48700500D01*
X152506814Y-48766392D01*
X152634108Y-48800500D01*
X152634110Y-48800500D01*
X152765890Y-48800500D01*
X152765892Y-48800500D01*
X152893186Y-48766392D01*
X153007314Y-48700500D01*
X153100500Y-48607314D01*
X153166392Y-48493186D01*
X153200500Y-48365892D01*
X153200500Y-48234108D01*
X156699500Y-48234108D01*
X156699500Y-48365891D01*
X156716554Y-48429539D01*
X156733608Y-48493188D01*
X156766554Y-48550250D01*
X156799500Y-48607314D01*
X156892686Y-48700500D01*
X157006814Y-48766392D01*
X157134108Y-48800500D01*
X157134110Y-48800500D01*
X157265890Y-48800500D01*
X157265892Y-48800500D01*
X157393186Y-48766392D01*
X157507314Y-48700500D01*
X157600500Y-48607314D01*
X157666392Y-48493186D01*
X157700500Y-48365892D01*
X157700500Y-48234108D01*
X157666392Y-48106814D01*
X157666387Y-48106806D01*
X157657563Y-48091521D01*
X157600500Y-47992686D01*
X157507314Y-47899500D01*
X157449104Y-47865892D01*
X157449104Y-47865891D01*
X157449101Y-47865891D01*
X157393187Y-47833608D01*
X157329539Y-47816554D01*
X157265892Y-47799500D01*
X157265891Y-47799500D01*
X157134108Y-47799500D01*
X157006808Y-47833609D01*
X157006806Y-47833610D01*
X156892696Y-47899493D01*
X156892682Y-47899502D01*
X156892677Y-47899506D01*
X156799506Y-47992677D01*
X156799502Y-47992682D01*
X156799493Y-47992696D01*
X156733610Y-48106806D01*
X156733609Y-48106808D01*
X156733608Y-48106812D01*
X156699500Y-48234108D01*
X153200500Y-48234108D01*
X153166392Y-48106814D01*
X153166387Y-48106806D01*
X153157563Y-48091521D01*
X153100500Y-47992686D01*
X153007314Y-47899500D01*
X152949104Y-47865892D01*
X152949104Y-47865891D01*
X152949101Y-47865891D01*
X152893187Y-47833608D01*
X152829539Y-47816554D01*
X152765892Y-47799500D01*
X152765891Y-47799500D01*
X152634108Y-47799500D01*
X152506808Y-47833609D01*
X152506806Y-47833610D01*
X152392696Y-47899493D01*
X152392682Y-47899502D01*
X152392677Y-47899506D01*
X152299506Y-47992677D01*
X152299502Y-47992682D01*
X152299493Y-47992696D01*
X152233610Y-48106806D01*
X152233609Y-48106808D01*
X152233608Y-48106812D01*
X152199500Y-48234108D01*
X143200190Y-48234108D01*
X143167715Y-42942346D01*
X143169361Y-42930384D01*
X143172524Y-42907383D01*
X143174783Y-42899512D01*
X143176836Y-42892359D01*
X143214226Y-42833372D01*
X143215411Y-42832333D01*
X143270551Y-42804431D01*
X143278522Y-42802676D01*
X143305323Y-42799780D01*
X164416119Y-42826856D01*
G37*
%TD.AperFunction*%
%TD*%
%TA.AperFunction,Conductor*%
%TO.N,+3.3V*%
G36*
X209143093Y-61319685D02*
G01*
X209188848Y-61372489D01*
X209200054Y-61423946D01*
X209209964Y-84172946D01*
X209190309Y-84239994D01*
X209137525Y-84285772D01*
X209086018Y-84297000D01*
X202324054Y-84299945D01*
X202257006Y-84280290D01*
X202211228Y-84227506D01*
X202200000Y-84175945D01*
X202200000Y-77234108D01*
X205699500Y-77234108D01*
X205699500Y-77365891D01*
X205733608Y-77493187D01*
X205766554Y-77550250D01*
X205799500Y-77607314D01*
X205892686Y-77700500D01*
X206006814Y-77766392D01*
X206134108Y-77800500D01*
X206134110Y-77800500D01*
X206265890Y-77800500D01*
X206265892Y-77800500D01*
X206393186Y-77766392D01*
X206507314Y-77700500D01*
X206600500Y-77607314D01*
X206666392Y-77493186D01*
X206700500Y-77365892D01*
X206700500Y-77234108D01*
X206666392Y-77106814D01*
X206600500Y-76992686D01*
X206507314Y-76899500D01*
X206450250Y-76866554D01*
X206393187Y-76833608D01*
X206329539Y-76816554D01*
X206265892Y-76799500D01*
X206134108Y-76799500D01*
X206006812Y-76833608D01*
X205892686Y-76899500D01*
X205892683Y-76899502D01*
X205799502Y-76992683D01*
X205799500Y-76992686D01*
X205733608Y-77106812D01*
X205699500Y-77234108D01*
X202200000Y-77234108D01*
X202200000Y-61424000D01*
X202219685Y-61356961D01*
X202272489Y-61311206D01*
X202324000Y-61300000D01*
X209076054Y-61300000D01*
X209143093Y-61319685D01*
G37*
%TD.AperFunction*%
%TD*%
M02*
